<svg id="Capa_1" enable-background="new 0 0 512 512" height="512" viewBox="0 0 512 512" width="512" xmlns="http://www.w3.org/2000/svg" xmlns:xlink="http://www.w3.org/1999/xlink"><linearGradient id="SVGID_1_" gradientUnits="userSpaceOnUse" x1="256" x2="256" y1="512" y2="0"><stop offset="0" stop-color="#fd3a84"/><stop offset="1" stop-color="#ffa68d"/></linearGradient><linearGradient id="SVGID_2_" gradientUnits="userSpaceOnUse" x1="301" x2="301" y1="450" y2="0"><stop offset="0" stop-color="#ffc2cc"/><stop offset="1" stop-color="#fff2f4"/></linearGradient><g id="Zip_File_2_"><g><g><path d="m376 105-30-105h-135l-15 30-15-30h-105c-8.401 0-15 6.599-15 15v482c0 8.401 6.599 15 15 15h360c8.401 0 15-6.599 15-15v-362z" fill="url(#SVGID_1_)"/></g></g><g><g><path d="m448.001 126-90-120c-2.701-3.9-7.202-6-12.001-6v120c0 8.284 6.716 15 15 15h90c0-3.3-1.199-6.301-2.999-9zm-222.001-36c8.291 0 15-6.709 15-15s-6.709-15-15-15h-15v-60h-30v60h-15c-8.291 0-15 6.709-15 15s6.709 15 15 15h15v30h-15c-8.291 0-15 6.709-15 15s6.709 15 15 15h15v30h-15c-8.291 0-15 6.709-15 15s6.709 15 15 15h15v30h-15c-8.291 0-15 6.709-15 15s6.709 15 15 15h15v41.523c-6.561 13.469-30 63.702-30 93.477 0 24.814 20.186 45 45 45s45-20.186 45-45c0-29.775-23.439-80.008-30-93.477v-41.523h15c8.291 0 15-6.709 15-15s-6.709-15-15-15h-15v-30h15c8.291 0 15-6.709 15-15s-6.709-15-15-15h-15v-30h15c8.291 0 15-6.709 15-15s-6.709-15-15-15h-15v-30z" fill="url(#SVGID_2_)"/></g></g></g></svg>