<svg id="Capa_1" enable-background="new 0 0 512 512" height="512" viewBox="0 0 512 512" width="512" xmlns="http://www.w3.org/2000/svg" xmlns:xlink="http://www.w3.org/1999/xlink"><linearGradient id="SVGID_1_" gradientUnits="userSpaceOnUse" x1="256" x2="256" y1="512" y2="0"><stop offset="0" stop-color="#fd5900"/><stop offset="1" stop-color="#ffde00"/></linearGradient><linearGradient id="SVGID_2_" gradientUnits="userSpaceOnUse" x1="271" x2="271" y1="451" y2="1"><stop offset="0" stop-color="#ffe59a"/><stop offset="1" stop-color="#ffffd5"/></linearGradient><g id="Vynil_1_"><g><g><circle cx="256" cy="256" fill="url(#SVGID_1_)" r="256"/></g></g><g><g><path d="m436 1c-8.291 0-15 6.709-15 15v232.72c0 20.039-7.808 38.877-21.973 53.042l-21.678 21.678c-16.71-7.531-37.61-4.988-50.949 8.351l-42.305 42.305c-5.859 5.859-5.859 15.352 0 21.211l10.694 10.693-19.395 19.395c-5.859 5.859-5.859 15.352 0 21.211s15.352 5.859 21.211 0l19.395-19.395 10.693 10.693c5.859 5.859 15.352 5.859 21.211 0l42.305-42.305c8.525-8.525 13.213-19.849 13.213-31.904 0-6.844-1.666-13.38-4.532-19.374l21.348-21.348c19.834-19.834 30.762-46.202 30.762-74.253v-232.72c0-8.291-6.709-15-15-15zm-165 105c0-8.291-6.709-15-15-15-90.981 0-165 74.019-165 165 0 8.291 6.709 15 15 15s15-6.709 15-15c0-74.443 60.557-135 135-135 8.291 0 15-6.709 15-15zm60 150c0-41.353-33.647-75-75-75s-75 33.647-75 75 33.647 75 75 75 75-33.647 75-75zm-75 15c-8.284 0-15-6.716-15-15s6.716-15 15-15 15 6.716 15 15-6.716 15-15 15z" fill="url(#SVGID_2_)"/></g></g></g></svg>