<svg id="Capa_1" enable-background="new 0 0 512 512" height="512" viewBox="0 0 512 512" width="512" xmlns="http://www.w3.org/2000/svg" xmlns:xlink="http://www.w3.org/1999/xlink"><linearGradient id="SVGID_1_" gradientUnits="userSpaceOnUse" x1="256" x2="256" y1="436" y2="106"><stop offset="0" stop-color="#a93aff"/><stop offset="1" stop-color="#ff81ff"/></linearGradient><linearGradient id="SVGID_2_" gradientUnits="userSpaceOnUse" x1="256" x2="256" y1="376" y2="76"><stop offset="0" stop-color="#ffbef9"/><stop offset="1" stop-color="#fff1ff"/></linearGradient><g><g><g><path d="m437 106h-362l-75 60v225c0 24.901 20.099 45 45 45h422c24.902 0 45-20.099 45-45v-225z" fill="url(#SVGID_1_)"/></g></g><g><g><path d="m61 301c0 41.4 33.6 75 75 75h15v-60h-15c-8.401 0-15-6.599-15-15s6.599-15 15-15h15v-60h-15c-41.4 0-75 33.6-75 75zm120 75h150v-150h-150zm195-150h-15v60h15c8.401 0 15 6.599 15 15s-6.599 15-15 15h-15v60h15c41.4 0 75-33.6 75-75s-33.6-75-75-75zm91-150h-422c-24.901 0-45 20.099-45 45v45h60v-15c0-8.401 6.599-15 15-15h362c8.401 0 15 6.599 15 15v15h60v-45c0-24.901-20.098-45-45-45z" fill="url(#SVGID_2_)"/></g></g></g></svg>