<svg id="Capa_1" enable-background="new 0 0 512.001 512.001" height="512" viewBox="0 0 512.001 512.001" width="512" xmlns="http://www.w3.org/2000/svg" xmlns:xlink="http://www.w3.org/1999/xlink"><linearGradient id="SVGID_1_" gradientUnits="userSpaceOnUse" x1="77.003" x2="423.862" y1="435.019" y2="88.16"><stop offset="0" stop-color="#5558ff"/><stop offset="1" stop-color="#00c0ff"/></linearGradient><linearGradient id="SVGID_2_" gradientUnits="userSpaceOnUse" x1="55.623" x2="465.098" y1="456.449" y2="46.974"><stop offset="0" stop-color="#addcff"/><stop offset=".5028" stop-color="#eaf6ff"/><stop offset="1" stop-color="#eaf6ff"/></linearGradient><g><g><g><path d="m404.32 213.702 7.334-22.586 14.143 1.285 21.003-21.301-1.798-61.8-38.071-4.228-4.23-38.071-61.498-1.8-21.303 21.299 1.066 13.707-22.368 7.593-32.098-32.1c-2.7-2.999-6.6-4.499-10.5-4.499s-7.8 1.5-10.499 4.499l-232.227 232.282c-17.699 17.401-17.699 45.899 0 63.3l21.302 21.301c5.702 5.999 15.297 5.999 20.999 0l103.802-103.5c17.699-17.701 46.198-17.701 63.896-.3 18.161 18.807 17.034 46.261 0 63.9l-103.798 103.8c-5.999 5.7-5.999 15.298 0 20.999l21.299 21.301c16.668 17.24 45.894 18.006 63.303 0l232.223-232.283c5.999-5.7 5.999-15.298 0-20.999-7.846-7.846-20.261-20.159-31.98-31.799zm-191.666 128.138c11.689-11.704 11.689-30.732 0-42.437-11.701-11.731-30.733-11.719-42.422 0-11.689 11.704-11.689 30.732 0 42.451 11.753 11.693 30.687 11.691 42.422-.014z" fill="url(#SVGID_1_)"/></g></g><g><g><path d="m507.499 89.4-84.898-84.899c-5.396-5.992-15.601-6.01-20.999 0l-60.399 60.7 31.498 31.8c5.702 5.7 5.702 15.3 0 21-6.24 6.24-15.564 5.732-21.302 0l-31.499-31.501-21.302 21.3c6.035 6.242-17.115-17.136 105.901 105.901l21.299-21.301-31.798-31.8c-5.999-6-5.999-15.3 0-21.301 5.702-5.7 15.3-5.7 21.002 0l31.798 31.8 60.7-60.7c6.002-5.699 6.002-15.299-.001-20.999zm-369.23 178.275-103.798 103.799c-17.588 17.588-17.562 46.277 0 63.809l42.29 42.305c17.569 17.569 46.242 17.582 63.823 0l103.931-103.931c29.542-30.275 29.074-76.775-.132-105.981-29.078-29.049-76.626-29.107-106.114-.001zm63.772 63.552c-5.856 5.859-15.352 5.859-21.211 0-5.859-5.858-5.859-15.355 0-21.213s15.355-5.858 21.211 0c5.86 5.858 5.86 15.356 0 21.213z" fill="url(#SVGID_2_)"/></g></g></g></svg>