<svg id="Capa_1" enable-background="new 0 0 512 512" height="512" viewBox="0 0 512 512" width="512" xmlns="http://www.w3.org/2000/svg" xmlns:xlink="http://www.w3.org/1999/xlink"><linearGradient id="SVGID_1_" gradientUnits="userSpaceOnUse" x1="256" x2="256" y1="479.524" y2="0"><stop offset="0" stop-color="#c3ffe8"/><stop offset=".9973" stop-color="#f0fff4"/></linearGradient><linearGradient id="SVGID_2_" gradientUnits="userSpaceOnUse" x1="256" x2="256" y1="512" y2="62"><stop offset="0" stop-color="#00b59c"/><stop offset="1" stop-color="#9cffac"/></linearGradient><g><g><g><path d="m136 107v-92c0-8.291-6.709-15-15-15h-60c-8.291 0-15 6.709-15 15v92c0 8.291 6.709 15 15 15h60c8.291 0 15-6.709 15-15zm315-107c-8.291 0-15 6.709-15 15v62c0 8.291 6.709 15 15 15s15-6.709 15-15v-62c0-8.291-6.709-15-15-15zm0 182c-8.291 0-15 6.709-15 15v90c0 39.864-14.143 76.615-37.903 105.328 5.083-14.26 7.903-29.515 7.903-45.328 0-74.443-60.557-135-135-135s-135 60.557-135 135c0 15.815 2.823 31.073 7.906 45.335-23.763-28.713-37.906-65.469-37.906-105.335v-90c0-8.291-6.709-15-15-15s-15 6.709-15 15v90c0 95.625 68.35 176.499 162.524 192.305 7.968 1.398 15.88-4.024 17.271-12.319 1.251-7.48-2.693-16.143-11.06-18.296-46.362-11.924-78.735-53.746-78.735-101.69 0-57.891 47.109-105 105-105s105 47.109 105 105c0 47.944-32.373 89.766-78.735 101.689-8.4 2.161-12.291 10.933-11.06 18.296 1.392 8.302 9.319 13.714 17.271 12.319 94.174-15.805 162.524-96.679 162.524-192.304v-90c0-8.291-6.709-15-15-15z" fill="url(#SVGID_1_)"/></g></g><g><g><path d="m151 92h-120c-8.291 0-15 6.709-15 15v60c0 24.814 20.186 45 45 45h60c24.814 0 45-20.186 45-45v-60c0-8.291-6.709-15-15-15zm330-30h-60c-8.291 0-15 6.709-15 15v90c0 24.814 20.186 45 45 45s45-20.186 45-45v-90c0-8.291-6.709-15-15-15zm-180 330h-60c-8.291 0-15 6.709-15 15v90c0 8.291 6.709 15 15 15h60c8.291 0 15-6.709 15-15v-90c0-8.291-6.709-15-15-15z" fill="url(#SVGID_2_)"/></g></g></g></svg>