<svg id="Capa_1" enable-background="new 0 0 511.886 511.886" height="512" viewBox="0 0 511.886 511.886" width="512" xmlns="http://www.w3.org/2000/svg" xmlns:xlink="http://www.w3.org/1999/xlink"><linearGradient id="SVGID_1_" gradientUnits="userSpaceOnUse" x1="255.943" x2="255.943" y1="511.886" y2="0"><stop offset="0" stop-color="#fd3a84"/><stop offset="1" stop-color="#ffa68d"/></linearGradient><linearGradient id="SVGID_2_" gradientUnits="userSpaceOnUse" x1="225.965" x2="225.965" y1="299.886" y2="59.886"><stop offset="0" stop-color="#ffc2cc"/><stop offset="1" stop-color="#fff2f4"/></linearGradient><g id="brain_2_"><g><g><path d="m479.94 309.436-72.217-185.332c-34.717-89.033-128.613-139.394-223.14-119.956-74.018 15.279-134.018 75.264-149.326 149.268-13.55 65.537 4.995 130.195 50.889 177.393 17.08 17.578 24.961 41.968 21.079 65.244v.015l-16.055 98.357c-.732 4.351.498 8.789 3.354 12.158 2.842 3.369 7.031 5.303 11.44 5.303h180c8.291 0 15-6.709 15-15v-32c0-8.276 6.724-15 15-15h60c24.814 0 45-20.186 45-45v-75h45c4.951 0 9.595-2.446 12.378-6.533 2.799-4.088 3.4-9.302 1.598-13.917z" fill="url(#SVGID_1_)"/></g></g><g><g><path d="m330.877 152.888c.059-.996.088-2.007.088-3.003 0-27.188-17.944-50.361-43.579-57.568-13.945-20.156-36.885-32.432-61.421-32.432s-47.476 12.275-61.421 32.432c-25.635 7.207-43.579 30.381-43.579 57.568 0 .85.015 1.699.059 2.549-17.49 6.182-30.059 22.881-30.059 42.451 0 24.814 20.186 45 45 45 8.276 0 15 6.724 15 15v30c0 8.291 6.709 15 15 15s15-6.709 15-15v-15h15c19.556 0 36.24-12.539 42.437-30h77.563c24.814 0 45-20.186 45-45 0-19.116-11.982-35.478-30.088-41.997z" fill="url(#SVGID_2_)"/></g></g></g></svg>