<svg id="Capa_1" enable-background="new 0 0 512 512" height="512" viewBox="0 0 512 512" width="512" xmlns="http://www.w3.org/2000/svg" xmlns:xlink="http://www.w3.org/1999/xlink"><linearGradient id="SVGID_1_" gradientUnits="userSpaceOnUse" x1="150" x2="150" y1="481" y2="31"><stop offset="0" stop-color="#fd5900"/><stop offset="1" stop-color="#ffde00"/></linearGradient><linearGradient id="SVGID_2_" gradientUnits="userSpaceOnUse" x1="285.998" x2="285.998" y1="421" y2="90.997"><stop offset="0" stop-color="#ffe59a"/><stop offset="1" stop-color="#ffffd5"/></linearGradient><g><g><g><path d="m150 31c-82.705 0-150 67.295-150 150v150c0 82.705 67.295 150 150 150s150-67.295 150-150v-150c0-82.705-67.295-150-150-150z" fill="url(#SVGID_1_)"/></g></g><g><g><path d="m240 181c0-4.453-1.978-8.672-5.391-11.528l-90-75c-4.482-3.706-10.693-4.541-15.967-2.051-5.273 2.461-8.642 7.764-8.642 13.579v117.979l-35.391-29.502c-6.387-5.273-15.835-4.424-21.138 1.919-5.303 6.372-4.438 15.835 1.919 21.138l46.172 38.466-46.172 38.467c-6.357 5.303-7.222 14.766-1.919 21.138 5.303 6.357 14.751 7.222 21.138 1.919l35.391-29.503v117.979c0 5.815 3.369 11.118 8.643 13.579 5.282 2.488 11.507 1.65 15.967-2.051l90-75c3.412-2.856 5.39-7.075 5.39-11.528s-1.978-8.672-5.391-11.528l-76.186-63.472 76.187-63.472c3.412-2.856 5.39-7.075 5.39-11.528zm-38.438 150-51.562 42.979v-85.957zm-51.562-107.021v-85.957l51.562 42.978zm313.616-84.595c-5.859-5.859-15.352-5.859-21.211 0s-5.859 15.352 0 21.211c25.533 25.517 39.595 59.399 39.595 95.405s-14.062 69.888-39.595 95.405c-5.859 5.859-5.859 15.352 0 21.211 5.86 5.859 15.352 5.859 21.211 0 31.201-31.186 48.384-72.597 48.384-116.616s-17.183-85.43-48.384-116.616zm-42.407 42.407c-5.859-5.859-15.352-5.859-21.211 0s-5.859 15.366 0 21.211c14.194 14.18 22.002 33.003 22.002 52.998s-7.808 38.818-22.002 52.998c-5.859 5.845-5.859 15.352 0 21.211 5.86 5.859 15.352 5.859 21.211 0 19.849-19.834 30.791-46.187 30.791-74.209s-10.942-54.375-30.791-74.209zm-63.618 42.407c-5.845 5.859-5.845 15.366.029 21.211 2.827 2.812 4.38 6.577 4.38 10.591s-1.553 7.778-4.38 10.591c-5.874 5.845-5.874 15.352-.029 21.211 5.802 5.831 15.293 5.917 21.211.029 8.51-8.481 13.198-19.79 13.198-31.831s-4.688-23.35-13.198-31.831c-5.86-5.83-15.352-5.83-21.211.029z" fill="url(#SVGID_2_)"/></g></g></g></svg>