<svg id="Capa_1" enable-background="new 0 0 512 512" height="512" viewBox="0 0 512 512" width="512" xmlns="http://www.w3.org/2000/svg" xmlns:xlink="http://www.w3.org/1999/xlink"><linearGradient id="SVGID_1_" gradientUnits="userSpaceOnUse" x1="136" x2="136" y1="467" y2="45"><stop offset="0" stop-color="#5558ff"/><stop offset="1" stop-color="#00c0ff"/></linearGradient><linearGradient id="SVGID_2_" gradientUnits="userSpaceOnUse" x1="256" x2="256" y1="512" y2="0"><stop offset="0" stop-color="#addcff"/><stop offset=".5028" stop-color="#eaf6ff"/><stop offset="1" stop-color="#eaf6ff"/></linearGradient><g><g><g><path d="m197 241c8.401 0 15-6.599 15-15 0-24.901 20.098-45 45-45 8.401 0 15-6.599 15-15v-91l-135-30-137 30v362l122 30 150-30v-91c0-8.401-6.599-15-15-15h-60c-24.902 0-45-20.099-45-45s20.098-45 45-45z" fill="url(#SVGID_1_)"/></g></g><g><g><path d="m0 467c0 24.901 20.098 45 45 45h182c24.902 0 45-20.099 45-45v-30h-272zm272-422c0-24.901-20.098-45-45-45h-182c-24.902 0-45 20.099-45 45v30h272zm179.121 167.333c-6.724-51.46-50.859-91.333-104.121-91.333-28.242 0-54.873 11.47-74.517 31.787-42.231-9.683-81.841 19.731-89.224 59.473-34.819 6.474-61.259 37.075-61.259 73.74 0 41.353 33.647 75 75 75h240c41.353 0 75-33.647 75-75 0-36.533-26.25-67.046-60.879-73.667z" fill="url(#SVGID_2_)"/></g></g></g></svg>