<svg id="Capa_1" enable-background="new 0 0 512 512" height="512" viewBox="0 0 512 512" width="512" xmlns="http://www.w3.org/2000/svg" xmlns:xlink="http://www.w3.org/1999/xlink"><linearGradient id="SVGID_1_" gradientUnits="userSpaceOnUse" x1="256" x2="256" y1="512" y2="0"><stop offset="0" stop-color="#00b59c"/><stop offset="1" stop-color="#9cffac"/></linearGradient><linearGradient id="SVGID_2_" gradientUnits="userSpaceOnUse" x1="241" x2="241" y1="451" y2="60"><stop offset="0" stop-color="#c3ffe8"/><stop offset=".9973" stop-color="#f0fff4"/></linearGradient><g id="Sim_Card_2_"><g><g><path d="m436 180c8.291 0 15-6.709 15-15v-60c0-3.984-1.582-7.793-4.395-10.605l-90-90c-2.812-2.813-6.621-4.395-10.605-4.395h-270c-8.291 0-15 6.709-15 15v150c0 8.291 6.709 15 15 15h15v30h-15c-8.291 0-15 6.709-15 15v272c0 8.291 6.709 15 15 15h360c8.291 0 15-6.709 15-15v-272c0-8.291-6.709-15-15-15h-15v-30z" fill="url(#SVGID_1_)"/></g></g><g><g><path d="m346 271h-135v75h150v-60c0-8.291-6.709-15-15-15zm-165 0h-45c-8.291 0-15 6.709-15 15v60h60zm120 180h45c8.291 0 15-6.709 15-15v-60h-60zm-180-15c0 8.291 6.709 15 15 15h135v-75h-150zm45-286c8.291 0 15-6.709 15-15v-60c0-8.291-6.709-15-15-15s-15 6.709-15 15v60c0 8.291 6.709 15 15 15zm60 0c8.291 0 15-6.709 15-15v-60c0-8.291-6.709-15-15-15s-15 6.709-15 15v60c0 8.291 6.709 15 15 15zm60 0c8.291 0 15-6.709 15-15v-60c0-8.291-6.709-15-15-15s-15 6.709-15 15v60c0 8.291 6.709 15 15 15z" fill="url(#SVGID_2_)"/></g></g></g></svg>