<svg id="Capa_1" enable-background="new 0 0 512 512" height="512" viewBox="0 0 512 512" width="512" xmlns="http://www.w3.org/2000/svg" xmlns:xlink="http://www.w3.org/1999/xlink"><linearGradient id="SVGID_1_" gradientUnits="userSpaceOnUse" x1="256" x2="256" y1="467" y2="45"><stop offset="0" stop-color="#ffc2cc"/><stop offset="1" stop-color="#fff2f4"/></linearGradient><linearGradient id="SVGID_2_" gradientUnits="userSpaceOnUse" x1="256" x2="256" y1="512" y2="0"><stop offset="0" stop-color="#fd3a84"/><stop offset="1" stop-color="#ffa68d"/></linearGradient><g><g><g><path d="m436 120h-360c-8.291 0-15 6.709-15 15v61c0 8.291 6.709 15 15 15h360c8.291 0 15-6.709 15-15v-61c0-8.291-6.709-15-15-15zm0 181h-360c-8.291 0-15 6.709-15 15v61c0 8.291 6.709 15 15 15h360c8.291 0 15-6.709 15-15v-61c0-8.291-6.709-15-15-15zm-180 106h-150c-16.553 0-30 13.462-30 30s13.447 30 30 30h150c16.553 0 30-13.462 30-30s-13.447-30-30-30zm90 0c-16.553 0-30 13.462-30 30s13.447 30 30 30 30-13.462 30-30-13.447-30-30-30zm60 0c-16.553 0-30 13.462-30 30s13.447 30 30 30 30-13.462 30-30-13.447-30-30-30zm-150-121c16.553 0 30-13.462 30-30s-13.447-30-30-30h-150c-16.553 0-30 13.462-30 30s13.447 30 30 30zm120-30c0-16.538-13.447-30-30-30s-30 13.462-30 30 13.447 30 30 30 30-13.462 30-30zm30 30c16.553 0 30-13.462 30-30s-13.447-30-30-30-30 13.462-30 30 13.447 30 30 30zm-300-181h150c16.553 0 30-13.462 30-30s-13.447-30-30-30h-150c-16.553 0-30 13.462-30 30s13.447 30 30 30zm240 0c16.553 0 30-13.462 30-30s-13.447-30-30-30-30 13.462-30 30 13.447 30 30 30zm60 0c16.553 0 30-13.462 30-30s-13.447-30-30-30-30 13.462-30 30 13.447 30 30 30z" fill="url(#SVGID_1_)"/></g></g><g><g><path d="m466 362h-420c-24.814 0-45 20.186-45 45v60c0 24.814 20.186 45 45 45h420c24.814 0 45-20.186 45-45v-60c0-24.814-20.186-45-45-45zm-210 90h-150c-8.291 0-15-6.709-15-15s6.709-15 15-15h150c8.291 0 15 6.709 15 15s-6.709 15-15 15zm90 0c-8.284 0-15-6.716-15-15 0-8.286 6.716-15 15-15s15 6.714 15 15c0 8.284-6.716 15-15 15zm60 0c-8.284 0-15-6.716-15-15 0-8.286 6.716-15 15-15s15 6.714 15 15c0 8.284-6.716 15-15 15zm60-271h-420c-24.814 0-45 20.186-45 45v60c0 24.814 20.186 45 45 45h420c24.814 0 45-20.186 45-45v-60c0-24.814-20.186-45-45-45zm-210 90h-150c-8.291 0-15-6.709-15-15s6.709-15 15-15h150c8.291 0 15 6.709 15 15s-6.709 15-15 15zm90 0c-8.284 0-15-6.716-15-15 0-8.286 6.716-15 15-15s15 6.714 15 15c0 8.284-6.716 15-15 15zm60 0c-8.284 0-15-6.716-15-15 0-8.286 6.716-15 15-15s15 6.714 15 15c0 8.284-6.716 15-15 15zm60-271h-420c-24.814 0-45 20.186-45 45v60c0 24.814 20.186 45 45 45h420c24.814 0 45-20.186 45-45v-60c0-24.814-20.186-45-45-45zm-210 90h-150c-8.291 0-15-6.709-15-15s6.709-15 15-15h150c8.291 0 15 6.709 15 15s-6.709 15-15 15zm90 0c-8.284 0-15-6.716-15-15s6.716-15 15-15 15 6.716 15 15-6.716 15-15 15zm60 0c-8.284 0-15-6.716-15-15s6.716-15 15-15 15 6.716 15 15-6.716 15-15 15z" fill="url(#SVGID_2_)"/></g></g></g></svg>