<svg id="Capa_1" enable-background="new 0 0 512 512" height="512" viewBox="0 0 512 512" width="512" xmlns="http://www.w3.org/2000/svg" xmlns:xlink="http://www.w3.org/1999/xlink"><linearGradient id="SVGID_1_" gradientUnits="userSpaceOnUse" x1="263.5" x2="263.5" y1="512" y2="0"><stop offset="0" stop-color="#ffe59a"/><stop offset="1" stop-color="#ffffd5"/></linearGradient><linearGradient id="SVGID_2_" gradientUnits="userSpaceOnUse" x1="256" x2="256" y1="450" y2="0"><stop offset="0" stop-color="#fd5900"/><stop offset="1" stop-color="#ffde00"/></linearGradient><g><g><g><path d="m467 180c-8.291 0-15 6.709-15 15v272c0 8.276-6.724 15-15 15h-122c-8.276 0-15-6.724-15-15v-32c0-8.291-6.709-15-15-15s-15 6.709-15 15v32c0 24.814 20.186 45 45 45h122c24.814 0 45-20.186 45-45v-272c0-8.291-6.709-15-15-15zm0-180c-8.291 0-15 6.709-15 15v60c0 8.291 6.709 15 15 15s15-6.709 15-15v-60c0-8.291-6.709-15-15-15zm-152 375c0-16.538-13.447-30-30-30 16.553 0 30-13.462 30-30v-240c0-16.538-13.447-30-30-30h-210c-16.553 0-30 13.462-30 30v240c0 16.538 13.447 30 30 30-16.553 0-30 13.462-30 30s13.447 30 30 30h60c16.553 0 30-13.462 30-30s-13.447-30-30-30h90c-16.553 0-30 13.462-30 30s13.447 30 30 30h60c16.553 0 30-13.462 30-30z" fill="url(#SVGID_1_)"/></g></g><g><g><path d="m135 240c-8.284 0-15 6.716-15 15s6.716 15 15 15 15-6.716 15-15-6.716-15-15-15zm90 0c-8.284 0-15 6.716-15 15s6.716 15 15 15 15-6.716 15-15-6.716-15-15-15zm0-120c-8.284 0-15 6.716-15 15s6.716 15 15 15 15-6.716 15-15-6.716-15-15-15zm-90 0c-8.284 0-15 6.716-15 15s6.716 15 15 15 15-6.716 15-15-6.716-15-15-15zm180-120h-270c-24.814 0-45 20.186-45 45v360c0 24.814 20.186 45 45 45h270c24.814 0 45-20.186 45-45v-360c0-24.814-20.186-45-45-45zm-180 390h-60c-8.291 0-15-6.709-15-15s6.709-15 15-15h60c8.291 0 15 6.709 15 15s-6.709 15-15 15zm150 0h-60c-8.291 0-15-6.709-15-15s6.709-15 15-15h60c8.291 0 15 6.709 15 15s-6.709 15-15 15zm15-75c0 8.291-6.709 15-15 15h-210c-8.291 0-15-6.709-15-15v-240c0-8.291 6.709-15 15-15h210c8.291 0 15 6.709 15 15zm197-255h-60c-8.291 0-15 6.709-15 15v90c0 24.814 20.186 45 45 45s45-20.186 45-45v-90c0-8.291-6.709-15-15-15z" fill="url(#SVGID_2_)"/></g></g></g></svg>