<svg id="Capa_1" enable-background="new 0 0 512 512" height="512" viewBox="0 0 512 512" width="512" xmlns="http://www.w3.org/2000/svg" xmlns:xlink="http://www.w3.org/1999/xlink"><linearGradient id="SVGID_1_" gradientUnits="userSpaceOnUse" x1="256" x2="256" y1="512" y2="0"><stop offset="0" stop-color="#a93aff"/><stop offset="1" stop-color="#ff81ff"/></linearGradient><linearGradient id="SVGID_2_" gradientUnits="userSpaceOnUse" x1="256" x2="256" y1="512" y2="0"><stop offset="0" stop-color="#ffbef9"/><stop offset="1" stop-color="#fff1ff"/></linearGradient><g><g><g><path d="m476.499 94.501-90-90c-2.699-3.001-6.599-4.501-10.499-4.501h-15l-25.999 14-34.001-14h-30l-30 30-120-30h-75c-8.401 0-15 6.599-15 15v482c0 8.399 6.599 15 15 15h45l165-30 165 30h45c8.401 0 15-6.601 15-15v-392c0-3.9-1.501-7.8-4.501-10.499z" fill="url(#SVGID_1_)"/></g></g><g><g><path d="m376 242h-240c-24.901 0-45 20.099-45 45v225h330v-225c0-24.901-20.098-45-45-45zm-45 180h-150c-8.291 0-15-6.709-15-15s6.709-15 15-15h150c8.291 0 15 6.709 15 15s-6.709 15-15 15zm0-60h-150c-8.291 0-15-6.709-15-15s6.709-15 15-15h150c8.291 0 15 6.709 15 15s-6.709 15-15 15zm-165-182h150c24.901 0 45-20.101 45-45v-135h-60v105c0 8.401-6.599 15-15 15s-15-6.599-15-15v-105h-150v135c0 24.899 20.099 45 45 45z" fill="url(#SVGID_2_)"/></g></g></g></svg>