<svg id="Capa_1" enable-background="new 0 0 511.995 511.995" height="512" viewBox="0 0 511.995 511.995" width="512" xmlns="http://www.w3.org/2000/svg" xmlns:xlink="http://www.w3.org/1999/xlink"><linearGradient id="SVGID_1_" gradientUnits="userSpaceOnUse" x1="39.307" x2="457.667" y1="457.667" y2="39.307"><stop offset="0" stop-color="#addcff"/><stop offset=".5028" stop-color="#eaf6ff"/><stop offset="1" stop-color="#eaf6ff"/></linearGradient><linearGradient id="SVGID_2_" gradientUnits="userSpaceOnUse" x1="155.922" x2="468.222" y1="468.222" y2="155.922"><stop offset="0" stop-color="#5558ff"/><stop offset="1" stop-color="#00c0ff"/></linearGradient><g><g id="Satellite_3_"><g><g><g><path d="m202.973 287.813-39.48 39.48c-14.667-14.667-27.649-27.649-31.825-31.825-5.85-5.85-15.35-5.85-21.21 0-5.132 5.134-37.254 37.262-42.42 42.43l3.96 21.1-25.18.12c-5.134 5.132-37.262 37.254-42.43 42.42-5.845 5.855-5.855 15.355 0 21.21 10.266 10.266 74.526 74.526 84.86 84.86 5.845 5.845 15.354 5.856 21.21 0 5.133-5.132 37.263-37.254 42.43-42.42l-5.43-26.65 26.65 5.43c5.132-5.134 37.254-37.262 42.42-42.43 5.797-5.798 5.904-15.305 0-21.21-4.153-4.153-17.143-17.143-31.824-31.824l39.48-39.48c5.859-5.859 5.859-15.352 0-21.211s-15.352-5.86-21.211 0zm-63.853-84.888c5.879 5.941 15.41 5.947 21.284.073l42.598-42.598c5.886-5.886 5.853-15.45-.073-21.284l-20.962-20.669c-16.011-16.802-46.377-17.622-63.794-.264-17.476 17.52-17.476 45.996-.059 63.442zm191.118 106.099c-5.859-5.859-15.352-5.859-21.211 0s-5.859 15.352 0 21.211l48.56 48.56c5.859 5.859 15.352 5.859 21.211 0s5.859-15.352 0-21.211zm177.369-219.777c-10.266-10.266-74.526-74.526-84.86-84.86-5.846-5.846-15.356-5.854-21.21 0-5.132 5.134-37.254 37.263-42.42 42.43l.92 22.14-22.14-.92-21.215 21.21-21.215 21.21c-2.914 2.915-4.382 6.749-4.388 10.588-.005 3.84 1.452 7.685 4.388 10.622l31.825 31.825-32.811 32.811c-5.859 5.859-5.859 15.352 0 21.211s15.352 5.859 21.211 0l32.812-32.811c14.666 14.666 27.648 27.648 31.824 31.824 5.867 5.867 15.366 5.843 21.21 0 5.133-5.132 37.262-37.254 42.43-42.42l-3.93-25.15 25.15 3.93c5.132-5.134 37.253-37.262 42.42-42.43 5.845-5.855 5.854-15.355-.001-21.21z" fill="url(#SVGID_1_)"/></g></g><g><g><path d="m338.69 421.48c-8.335-.908-15.645 5.039-16.553 13.271s5.039 15.645 13.271 16.553c32.468 3.513 63.502-7.763 85.811-30.088 22.632-22.617 33.604-53.892 30.088-85.811-.908-8.232-8.394-14.209-16.553-13.271-8.232.908-14.18 8.32-13.271 16.553 2.505 22.822-5.317 45.161-21.475 61.318-16.156 16.186-38.554 23.994-61.318 21.475zm126.497-268.593-106.07-106.07-21.22 21.22 106.07 106.07zm-418.37 206.23 106.07 106.07 21.22-21.22-106.07-106.07zm464.095-30.333c-.923-8.232-8.218-14.15-16.553-13.271-8.232.908-14.18 8.32-13.271 16.553 4.526 41.045-9.565 81.284-38.643 110.376-29.092 29.062-69.258 43.125-110.376 38.643-8.496-.967-15.645 5.039-16.553 13.271s5.039 15.645 13.271 16.553c50.836 5.554 99.72-12.124 134.868-47.256 35.553-35.567 52.78-84.727 47.257-134.869zm-138.105-62.094-127.5-127.5c-17.52-17.52-45.996-17.52-63.516 0l-42.598 42.598c-17.52 17.505-17.52 46.011 0 63.516l127.5 127.5c5.859 5.859 15.352 5.859 21.211 0l84.902-84.902c5.86-5.861 5.86-15.353.001-21.212z" fill="url(#SVGID_2_)"/></g></g></g></g></g></svg>