<svg id="Capa_1" enable-background="new 0 0 512 512" height="512" viewBox="0 0 512 512" width="512" xmlns="http://www.w3.org/2000/svg" xmlns:xlink="http://www.w3.org/1999/xlink"><linearGradient id="SVGID_1_" gradientUnits="userSpaceOnUse" x1="256" x2="256" y1="467" y2="0"><stop offset="0" stop-color="#ffc2cc"/><stop offset="1" stop-color="#fff2f4"/></linearGradient><linearGradient id="SVGID_2_" gradientUnits="userSpaceOnUse" x1="256" x2="256" y1="512" y2="61"><stop offset="0" stop-color="#fd3a84"/><stop offset="1" stop-color="#ffa68d"/></linearGradient><g id="Mail_1_"><g><g><path d="m467 0h-422c-24.901 0-45 20.099-45 45v91l256 31 256-31v-91c0-24.901-20.099-45-45-45zm-31 197h-360c-16.553 0-30 13.462-30 30v210c0 16.538 13.447 30 30 30h360c16.553 0 30-13.462 30-30v-210c0-16.538-13.447-30-30-30z" fill="url(#SVGID_1_)"/></g></g><g><g><path d="m76 91h30c8.291 0 15-6.709 15-15s-6.709-15-15-15h-30c-8.291 0-15 6.709-15 15s6.709 15 15 15zm90 0h30c8.291 0 15-6.709 15-15s-6.709-15-15-15h-30c-8.291 0-15 6.709-15 15s6.709 15 15 15zm90 0h30c8.291 0 15-6.709 15-15s-6.709-15-15-15h-30c-8.291 0-15 6.709-15 15s6.709 15 15 15zm-256 45v331c0 24.899 20.099 45 45 45h422c24.901 0 45-20.101 45-45v-331zm451 301c0 8.291-6.709 15-15 15h-360c-8.291 0-15-6.709-15-15v-210c0-8.291 6.709-15 15-15h360c8.291 0 15 6.709 15 15zm-75.469-159.609c-5.317-6.357-14.736-7.222-21.138-1.919l-98.393 82.002-98.394-82.002c-6.387-5.303-15.82-4.438-21.138 1.919-5.303 6.372-4.438 15.835 1.919 21.138l40.177 33.481-40.162 33.462c-6.372 5.303-7.236 14.766-1.934 21.123 5.289 6.357 14.745 7.243 21.123 1.934l44.403-36.997 44.396 36.997c5.566 4.629 13.652 4.629 19.219 0l44.396-36.997 44.403 36.997c6.381 5.312 15.836 4.421 21.123-1.934 5.303-6.357 4.438-15.82-1.934-21.123l-40.162-33.462 40.177-33.481c6.358-5.303 7.222-14.766 1.919-21.138z" fill="url(#SVGID_2_)"/></g></g></g></svg>