<svg id="Capa_1" enable-background="new 0 0 512 512" height="512" viewBox="0 0 512 512" width="512" xmlns="http://www.w3.org/2000/svg" xmlns:xlink="http://www.w3.org/1999/xlink"><linearGradient id="SVGID_1_" gradientUnits="userSpaceOnUse" x1="256" x2="256" y1="391" y2="121"><stop offset="0" stop-color="#fd5900"/><stop offset="1" stop-color="#ffde00"/></linearGradient><linearGradient id="SVGID_2_" gradientUnits="userSpaceOnUse" x1="256" x2="256" y1="391" y2="181"><stop offset="0" stop-color="#ffe59a"/><stop offset="1" stop-color="#ffffd5"/></linearGradient><g id="Ram_2_"><g><g><path d="m512 136c0-8.401-6.599-15-15-15h-482c-8.401 0-15 6.599-15 15v45l30 15-30 15v30l30 15-30 15v105c0 8.399 6.599 15 15 15h46l195-30 195 30h46c8.401 0 15-6.601 15-15v-105l-30-15 30-15v-30l-30-15 30-15z" fill="url(#SVGID_1_)"/></g></g><g><g><path d="m436 301h-360c-8.401 0-15 6.599-15 15v75h390v-75c0-8.401-6.599-15-15-15zm-330-30h45v-90h-45c-8.401 0-15 6.599-15 15v60c0 8.399 6.599 15 15 15zm135-15v-60c0-8.401-6.599-15-15-15h-45v90h45c8.401 0 15-6.601 15-15zm45 15h45v-90h-45c-8.401 0-15 6.599-15 15v60c0 8.399 6.599 15 15 15zm135-15v-60c0-8.401-6.599-15-15-15h-45v90h45c8.401 0 15-6.601 15-15zm-376-75h-45v30h45c8.401 0 15-6.601 15-15 0-8.401-6.599-15-15-15zm0 60h-45v30h45c8.401 0 15-6.601 15-15 0-8.401-6.599-15-15-15zm407 15c0 8.399 6.599 15 15 15h45v-30h-45c-8.401 0-15 6.599-15 15zm15-75c-8.401 0-15 6.599-15 15 0 8.399 6.599 15 15 15h45v-30z" fill="url(#SVGID_2_)"/></g></g></g></svg>