<svg id="Capa_1" enable-background="new 0 0 512 512" height="512" viewBox="0 0 512 512" width="512" xmlns="http://www.w3.org/2000/svg" xmlns:xlink="http://www.w3.org/1999/xlink"><linearGradient id="SVGID_1_" gradientUnits="userSpaceOnUse" x1="256" x2="256" y1="512" y2="0"><stop offset="0" stop-color="#a93aff"/><stop offset="1" stop-color="#ff81ff"/></linearGradient><linearGradient id="SVGID_2_" gradientUnits="userSpaceOnUse" x1="256" x2="256" y1="512" y2="0"><stop offset="0" stop-color="#ffbef9"/><stop offset="1" stop-color="#fff1ff"/></linearGradient><g id="Computer_CPU_2_"><g><g><path d="m467 151h30c8.401 0 15-6.601 15-15v-121c0-8.401-6.599-15-15-15h-106l-135 30-135-30h-106c-8.401 0-15 6.599-15 15v121c0 8.399 6.599 15 15 15h30c8.401 0 15 6.599 15 15 0 8.399-6.599 15-15 15h-30c-8.401 0-15 6.599-15 15v120c0 8.399 6.599 15 15 15h30c8.401 0 15 6.599 15 15 0 8.399-6.599 15-15 15h-30c-8.401 0-15 6.599-15 15v121c0 8.399 6.599 15 15 15h106l135-30 135 30h106c8.401 0 15-6.601 15-15v-121c0-8.401-6.599-15-15-15h-30c-8.401 0-15-6.601-15-15 0-8.401 6.599-15 15-15h30c8.401 0 15-6.601 15-15v-120c0-8.401-6.599-15-15-15h-30c-8.401 0-15-6.601-15-15 0-8.401 6.599-15 15-15z" fill="url(#SVGID_1_)"/></g></g><g><g><path d="m121 75c0 8.399 6.599 15 15 15h240c8.401 0 15-6.601 15-15v-75h-270zm255 347h-240c-8.401 0-15 6.599-15 15v75h270v-75c0-8.401-6.599-15-15-15zm0-211c8.291 0 15-6.709 15-15s-6.709-15-15-15h-15v-15c0-8.291-6.709-15-15-15h-15v-15c0-8.291-6.709-15-15-15s-15 6.709-15 15v15h-30v-15c0-8.291-6.709-15-15-15s-15 6.709-15 15v15h-30v-15c0-8.291-6.709-15-15-15s-15 6.709-15 15v15h-15c-8.291 0-15 6.709-15 15v15h-15c-8.291 0-15 6.709-15 15s6.709 15 15 15h15v30h-15c-8.291 0-15 6.709-15 15s6.709 15 15 15h15v30h-15c-8.291 0-15 6.709-15 15s6.709 15 15 15h15v15c0 8.291 6.709 15 15 15h15v15c0 8.291 6.709 15 15 15s15-6.709 15-15v-15h30v15c0 8.291 6.709 15 15 15s15-6.709 15-15v-15h30v15c0 8.291 6.709 15 15 15s15-6.709 15-15v-15h15c8.291 0 15-6.709 15-15v-15h15c8.291 0 15-6.709 15-15s-6.709-15-15-15h-15v-30h15c8.291 0 15-6.709 15-15s-6.709-15-15-15h-15v-30zm-300 211c-8.284 0-15 6.716-15 15s6.716 15 15 15 15-6.716 15-15-6.716-15-15-15zm360 0c-8.284 0-15 6.716-15 15s6.716 15 15 15 15-6.716 15-15-6.716-15-15-15zm0-332c8.284 0 15-6.716 15-15s-6.716-15-15-15-15 6.716-15 15 6.716 15 15 15zm-360-30c-8.284 0-15 6.716-15 15s6.716 15 15 15 15-6.716 15-15-6.716-15-15-15z" fill="url(#SVGID_2_)"/></g></g></g></svg>