<svg id="Capa_1" enable-background="new 0 0 512 512" height="512" viewBox="0 0 512 512" width="512" xmlns="http://www.w3.org/2000/svg" xmlns:xlink="http://www.w3.org/1999/xlink"><linearGradient id="SVGID_1_" gradientUnits="userSpaceOnUse" x1="256" x2="256" y1="452" y2="0"><stop offset="0" stop-color="#5558ff"/><stop offset="1" stop-color="#00c0ff"/></linearGradient><linearGradient id="SVGID_2_" gradientUnits="userSpaceOnUse" x1="256" x2="256" y1="512" y2="0"><stop offset="0" stop-color="#addcff"/><stop offset=".5028" stop-color="#eaf6ff"/><stop offset="1" stop-color="#eaf6ff"/></linearGradient><g id="Book_2_"><g><g><path d="m436 0h-195l-60 30-60-30h-15c-24.902 0-45 20.099-45 45v407l390-45v-392c0-8.401-6.599-15-15-15z" fill="url(#SVGID_1_)"/></g></g><g><g><path d="m128.8 118.2c5.098 2.699 10.8 2.398 15.601-.601l36.599-24.6 36.599 24.6c5.09 2.824 10.147 3.323 15.601.601 4.801-2.701 7.8-7.8 7.8-13.2v-105h-120v105c0 5.4 2.999 10.499 7.8 13.2zm7.2 181.8h240c8.291 0 15-6.709 15-15v-120c0-8.291-6.709-15-15-15h-240c-8.291 0-15 6.709-15 15v120c0 8.291 6.709 15 15 15zm60-90h90c8.291 0 15 6.709 15 15s-6.709 15-15 15h-90c-8.291 0-15-6.709-15-15s6.709-15 15-15zm240 272c-8.276 0-15-6.724-15-15v-30c0-8.276 6.724-15 15-15 8.291 0 15-6.709 15-15s-6.709-15-15-15h-315c-33.091 0-60 26.909-60 60s26.909 60 60 60h315c8.291 0 15-6.709 15-15s-6.709-15-15-15z" fill="url(#SVGID_2_)"/></g></g></g></svg>