<svg id="Capa_1" enable-background="new 0 0 512 512" height="512" viewBox="0 0 512 512" width="512" xmlns="http://www.w3.org/2000/svg" xmlns:xlink="http://www.w3.org/1999/xlink"><linearGradient id="SVGID_1_" gradientUnits="userSpaceOnUse" x1="256" x2="256" y1="482" y2="45"><stop offset="0" stop-color="#c3ffe8"/><stop offset=".9973" stop-color="#f0fff4"/></linearGradient><linearGradient id="SVGID_2_" gradientUnits="userSpaceOnUse" x1="256" x2="256" y1="512" y2="0"><stop offset="0" stop-color="#00b59c"/><stop offset="1" stop-color="#9cffac"/></linearGradient><g><g><g><path d="m151 375c0-8.291-6.709-15-15-15s-15 6.709-15 15v62c0 8.291 6.709 15 15 15s15-6.709 15-15zm240 0c0-8.291-6.709-15-15-15s-15 6.709-15 15v62c0 8.291 6.709 15 15 15s15-6.709 15-15zm-255-30c33.076 0 60-26.909 60-60s-26.924-60-60-60-60 26.909-60 60 26.924 60 60 60zm-60-210c0 16.538 13.447 30 30 30h60c16.553 0 30-13.462 30-30s-13.447-30-30-30c16.553 0 30-13.462 30-30s-13.447-30-30-30h-60c-16.553 0-30 13.462-30 30s13.447 30 30 30c-16.553 0-30 13.462-30 30zm300 210c33.076 0 60-26.909 60-60s-26.924-60-60-60-60 26.909-60 60 26.924 60 60 60zm-60-210c0 16.538 13.447 30 30 30h60c16.553 0 30-13.462 30-30s-13.447-30-30-30c16.553 0 30-13.462 30-30s-13.447-30-30-30h-60c-16.553 0-30 13.462-30 30s13.447 30 30 30c-16.553 0-30 13.462-30 30zm-210 317h-91c-8.291 0-15 6.709-15 15s6.709 15 15 15h91c8.291 0 15-6.709 15-15s-6.709-15-15-15zm240 0h-180c-8.291 0-15 6.709-15 15s6.709 15 15 15h180c8.291 0 15-6.709 15-15s-6.709-15-15-15zm151 0h-91c-8.291 0-15 6.709-15 15s6.709 15 15 15h91c8.291 0 15-6.709 15-15s-6.709-15-15-15z" fill="url(#SVGID_1_)"/></g></g><g><g><path d="m196 0h-120c-24.814 0-45 20.186-45 45v300c0 24.814 20.186 45 45 45h120c24.814 0 45-20.186 45-45v-300c0-24.814-20.186-45-45-45zm-60 330c-24.814 0-45-20.186-45-45s20.186-45 45-45 45 20.186 45 45-20.186 45-45 45zm30-180h-60c-8.291 0-15-6.709-15-15s6.709-15 15-15h60c8.291 0 15 6.709 15 15s-6.709 15-15 15zm0-60h-60c-8.291 0-15-6.709-15-15s6.709-15 15-15h60c8.291 0 15 6.709 15 15s-6.709 15-15 15zm270-90h-120c-24.814 0-45 20.186-45 45v300c0 24.814 20.186 45 45 45h120c24.814 0 45-20.186 45-45v-300c0-24.814-20.186-45-45-45zm-60 330c-24.814 0-45-20.186-45-45s20.186-45 45-45 45 20.186 45 45-20.186 45-45 45zm30-180h-60c-8.291 0-15-6.709-15-15s6.709-15 15-15h60c8.291 0 15 6.709 15 15s-6.709 15-15 15zm0-60h-60c-8.291 0-15-6.709-15-15s6.709-15 15-15h60c8.291 0 15 6.709 15 15s-6.709 15-15 15zm-270 332c-24.814 0-45 20.186-45 45s20.186 45 45 45 45-20.186 45-45-20.186-45-45-45zm240 0c-24.814 0-45 20.186-45 45s20.186 45 45 45 45-20.186 45-45-20.186-45-45-45z" fill="url(#SVGID_2_)"/></g></g></g></svg>