<svg id="Capa_1" enable-background="new 0 0 512 512" height="512" viewBox="0 0 512 512" width="512" xmlns="http://www.w3.org/2000/svg" xmlns:xlink="http://www.w3.org/1999/xlink"><linearGradient id="SVGID_1_" gradientUnits="userSpaceOnUse" x1="256" x2="256" y1="467" y2="0"><stop offset="0" stop-color="#fd3a84"/><stop offset="1" stop-color="#ffa68d"/></linearGradient><linearGradient id="SVGID_2_" gradientUnits="userSpaceOnUse" x1="256" x2="256" y1="512" y2="75"><stop offset="0" stop-color="#ffc2cc"/><stop offset="1" stop-color="#fff2f4"/></linearGradient><g id="Drawer_1_"><g><g><path d="m481 345c0-.901 0-1.8-.3-2.701l-55.5-305.4c-3.9-21.3-22.5-36.899-44.101-36.899h-250.198c-21.601 0-40.201 15.599-44.101 36.899l-55.8 308.101 225 30zm-135 30c-16.553 0-30 14.462-30 31h-120c0-16.538-13.447-31-30-31s-30 14.462-30 31v30c0 16.538 13.447 31 30 31h180c16.553 0 30-14.462 30-31v-30c0-16.538-13.447-31-30-31z" fill="url(#SVGID_1_)"/></g></g><g><g><path d="m31 345v122c0 24.899 20.099 45 45 45h360c24.901 0 45-20.101 45-45v-122zm330 91c0 8.291-6.709 15-15 15h-180c-8.291 0-15-6.709-15-15v-30c0-8.291 6.709-15 15-15s15 6.709 15 15v15h150v-15c0-8.291 6.709-15 15-15s15 6.709 15 15zm-240.381-151h270.762c8.291 0 15-6.709 15-15s-6.709-15-15-15h-270.762c-8.291 0-15 6.709-15 15s6.709 15 15 15zm10.913-60h248.936c8.291 0 15-6.709 15-15s-6.709-15-15-15h-248.936c-8.291 0-15 6.709-15 15s6.709 15 15 15zm10.899-60h227.139c8.291 0 15-6.709 15-15s-6.709-15-15-15h-227.139c-8.291 0-15 6.709-15 15s6.709 15 15 15zm10.913-60h205.312c8.291 0 15-6.709 15-15s-6.709-15-15-15h-205.312c-8.291 0-15 6.709-15 15s6.709 15 15 15z" fill="url(#SVGID_2_)"/></g></g></g></svg>