<svg id="Capa_1" enable-background="new 0 0 512 512" height="512" viewBox="0 0 512 512" width="512" xmlns="http://www.w3.org/2000/svg" xmlns:xlink="http://www.w3.org/1999/xlink"><linearGradient id="SVGID_1_" gradientUnits="userSpaceOnUse" x1="256" x2="256" y1="466" y2="46"><stop offset="0" stop-color="#ffe59a"/><stop offset="1" stop-color="#ffffd5"/></linearGradient><linearGradient id="SVGID_2_" gradientUnits="userSpaceOnUse" x1="256" x2="256" y1="512" y2="0"><stop offset="0" stop-color="#fd5900"/><stop offset="1" stop-color="#ffde00"/></linearGradient><g><g><g><path d="m406 196c0-33.741-11.204-64.914-30.081-90.002.027 0 .054.002.081.002 16.553 0 30-13.462 30-30s-13.447-30-30-30-30 13.462-30 30c0 .027.002.054.002.081-25.088-18.878-56.261-30.081-90.002-30.081s-64.914 11.203-90.002 30.081c0-.027.002-.054.002-.081 0-16.538-13.447-30-30-30s-30 13.462-30 30 13.447 30 30 30c.027 0 .054-.002.081-.002-18.877 25.088-30.081 56.261-30.081 90.002 0 82.705 67.295 150 150 150s150-67.295 150-150zm-240 180v60c0 16.538 13.447 30 30 30h120c16.553 0 30-13.462 30-30v-60c0-16.538-13.447-30-30-30h-60-60c-16.553 0-30 13.462-30 30zm-30 30c-16.553 0-30 13.462-30 30s13.447 30 30 30 30-13.462 30-30-13.447-30-30-30zm240 60c16.553 0 30-13.462 30-30s-13.447-30-30-30-30 13.462-30 30 13.447 30 30 30z" fill="url(#SVGID_1_)"/></g></g><g><g><path d="m256 151c-24.814 0-45 20.186-45 45s20.186 45 45 45 45-20.186 45-45-20.186-45-45-45zm150-151h-300c-24.814 0-45 20.186-45 45v422c0 24.814 20.186 45 45 45h300c24.814 0 45-20.186 45-45v-422c0-24.814-20.186-45-45-45zm-270 61c8.284 0 15 6.714 15 15 0 8.284-6.716 15-15 15s-15-6.716-15-15c0-8.286 6.716-15 15-15zm0 390c-8.284 0-15-6.716-15-15 0-8.286 6.716-15 15-15s15 6.714 15 15c0 8.284-6.716 15-15 15zm195-15c0 8.291-6.709 15-15 15h-120c-8.291 0-15-6.709-15-15v-60c0-8.291 6.709-15 15-15h120c8.291 0 15 6.709 15 15zm45 15c-8.284 0-15-6.716-15-15 0-8.286 6.716-15 15-15s15 6.714 15 15c0 8.284-6.716 15-15 15zm-120-120c-31.83 0-61.114-11.077-84.219-29.57l34.824-34.824c5.859-5.859 5.859-15.352 0-21.211s-15.352-5.859-21.211 0l-34.824 34.824c-18.493-23.104-29.57-52.39-29.57-84.219 0-74.443 60.557-135 135-135s135 60.557 135 135-60.557 135-135 135zm120-240c-8.284 0-15-6.716-15-15 0-8.286 6.716-15 15-15s15 6.714 15 15c0 8.284-6.716 15-15 15z" fill="url(#SVGID_2_)"/></g></g></g></svg>