<svg id="Capa_1" enable-background="new 0 0 512 512" height="512" viewBox="0 0 512 512" width="512" xmlns="http://www.w3.org/2000/svg" xmlns:xlink="http://www.w3.org/1999/xlink"><linearGradient id="SVGID_1_" gradientUnits="userSpaceOnUse" x1="256" x2="256" y1="332" y2="0"><stop offset="0" stop-color="#ffbef9"/><stop offset="1" stop-color="#fff1ff"/></linearGradient><linearGradient id="SVGID_2_" gradientUnits="userSpaceOnUse" x1="256" x2="256" y1="512" y2="92"><stop offset="0" stop-color="#a93aff"/><stop offset="1" stop-color="#ff81ff"/></linearGradient><g><g><g><path d="m406 0h-300c-8.291 0-15 6.709-15 15v242c0 8.291 6.709 15 15 15h60c8.276 0 15 6.724 15 15v30c0 8.291 6.709 15 15 15h210c8.291 0 15-6.709 15-15v-302c0-8.291-6.709-15-15-15z" fill="url(#SVGID_1_)"/></g></g><g><g><path d="m166 122h180c8.291 0 15-6.709 15-15s-6.709-15-15-15h-180c-8.291 0-15 6.709-15 15s6.709 15 15 15zm0 60h180c8.291 0 15-6.709 15-15s-6.709-15-15-15h-180c-8.291 0-15 6.709-15 15s6.709 15 15 15zm180 30h-90c-8.291 0-15 6.709-15 15s6.709 15 15 15h90c8.291 0 15-6.709 15-15s-6.709-15-15-15zm90 90h-225v-15c0-24.814-20.186-45-45-45h-90c-24.814 0-45 20.186-45 45v180c0 24.814 20.186 45 45 45h360c24.814 0 45-20.186 45-45v-120c0-24.815-20.186-45-45-45z" fill="url(#SVGID_2_)"/></g></g></g></svg>