<svg id="Capa_1" enable-background="new 0 0 512 512" height="512" viewBox="0 0 512 512" width="512" xmlns="http://www.w3.org/2000/svg" xmlns:xlink="http://www.w3.org/1999/xlink"><linearGradient id="SVGID_1_" gradientUnits="userSpaceOnUse" x1="286" x2="286" y1="421" y2="61"><stop offset="0" stop-color="#5558ff"/><stop offset="1" stop-color="#00c0ff"/></linearGradient><linearGradient id="SVGID_2_" gradientUnits="userSpaceOnUse" x1="226" x2="226" y1="451" y2="121"><stop offset="0" stop-color="#addcff"/><stop offset=".5028" stop-color="#eaf6ff"/><stop offset="1" stop-color="#eaf6ff"/></linearGradient><g><g><g><path d="m75 91c-8.291 0-15 6.709-15 15v30c0 8.291 6.709 15 15 15s15-6.709 15-15v-30c0-8.291-6.709-15-15-15zm392 30h-45v-15c0-24.9-20.098-45-45-45h-120c-24.902 0-45 20.1-45 45v15h-76l-31 150 31 150h101.499c6.302 0 11.7-3.9 14.103-9.6 2.098-6 .601-12.301-4.204-16.5-22.5-20.101-35.398-48.9-35.398-78.9 0-57.9 47.102-105 105-105s105 47.1 105 105c0 30-12.898 58.799-35.398 78.9-4.805 4.198-6.302 10.499-4.204 16.5 2.402 5.7 7.8 9.6 14.103 9.6h70.499c24.902 0 45-20.101 45-45v-210c0-24.9-20.098-45-45-45zm-150 105c-49.629 0-90 40.371-90 90s40.371 90 90 90 90-40.371 90-90-40.371-90-90-90z" fill="url(#SVGID_1_)"/></g></g><g><g><path d="m0 166v210c0 24.899 20.098 45 45 45h91v-300h-91c-24.902 0-45 20.1-45 45zm287-15h60c8.291 0 15-6.709 15-15s-6.709-15-15-15h-60c-8.291 0-15 6.709-15 15s6.709 15 15 15zm30 30c-74.443 0-135 60.557-135 135 0 73.871 59.82 135 135 135 32.739 0 64.482-11.968 89.487-33.809 28.916-25.795 45.513-62.68 45.513-101.191 0-74.443-60.557-135-135-135zm0 210c-41.353 0-75-33.647-75-75s33.647-75 75-75 75 33.647 75 75-33.647 75-75 75z" fill="url(#SVGID_2_)"/></g></g></g></svg>