<svg id="Capa_1" enable-background="new 0 0 512 512" height="512" viewBox="0 0 512 512" width="512" xmlns="http://www.w3.org/2000/svg" xmlns:xlink="http://www.w3.org/1999/xlink"><linearGradient id="SVGID_1_" gradientUnits="userSpaceOnUse" x1="256" x2="256" y1="452" y2="180"><stop offset="0" stop-color="#fd3a84"/><stop offset="1" stop-color="#ffa68d"/></linearGradient><linearGradient id="SVGID_2_" gradientUnits="userSpaceOnUse" x1="256" x2="256" y1="512" y2="0"><stop offset="0" stop-color="#ffc2cc"/><stop offset="1" stop-color="#fff2f4"/></linearGradient><g><g><g><path d="m436 180h-8.101c-5.332 0-10.269 2.827-12.949 7.441-8.247 14.121-22.807 22.559-38.95 22.559h-240c-16.143 0-30.703-8.438-38.95-22.559-2.681-4.614-7.617-7.441-12.949-7.441h-8.101c-24.814 0-45 20.186-45 45v212c0 8.291 6.709 15 15 15h420c8.291 0 15-6.709 15-15v-212c0-24.814-20.186-45-45-45z" fill="url(#SVGID_1_)"/></g></g><g><g><path d="m497 422h-482c-8.291 0-15 6.709-15 15v30c0 24.814 20.186 45 45 45h422c24.814 0 45-20.186 45-45v-30c0-8.291-6.709-15-15-15zm-361-182h45v60h-45c-8.291 0-15 6.709-15 15s6.709 15 15 15h60c8.291 0 15-6.709 15-15v-75h30v105c0 8.291 6.709 15 15 15s15-6.709 15-15v-105h30v75c0 8.291 6.709 15 15 15h60c8.291 0 15-6.709 15-15s-6.709-15-15-15h-45v-60h45c26.938 0 51.182-14.004 64.849-37.412 6.635-11.353 10.151-24.346 10.151-37.588 0-36.533-26.25-67.046-60.879-73.667-6.724-51.46-50.859-91.333-104.121-91.333-28.242 0-54.873 11.47-74.517 31.787-42.188-9.668-81.841 19.717-89.224 59.473-34.819 6.474-61.259 37.075-61.259 73.74 0 13.242 3.516 26.235 10.151 37.559 13.667 23.437 37.911 37.441 64.849 37.441z" fill="url(#SVGID_2_)"/></g></g></g></svg>