<svg id="Capa_1" enable-background="new 0 0 512 512" height="512" viewBox="0 0 512 512" width="512" xmlns="http://www.w3.org/2000/svg" xmlns:xlink="http://www.w3.org/1999/xlink"><linearGradient id="SVGID_1_" gradientUnits="userSpaceOnUse" x1="278.5" x2="278.5" y1="512" y2="0"><stop offset="0" stop-color="#ffe59a"/><stop offset="1" stop-color="#ffffd5"/></linearGradient><linearGradient id="SVGID_2_" gradientUnits="userSpaceOnUse" x1="241" x2="241" y1="452" y2="0"><stop offset="0" stop-color="#fd5900"/><stop offset="1" stop-color="#ffde00"/></linearGradient><g><g><g><path d="m466 91c-8.401 0-15 6.599-15 15v15l-30 45 30 45v60c0 16.5-13.5 30-30 30h-30c-11.1 0-21 3.3-30 8.399v-188.399l30-45-30-45v-16c0-8.401-6.599-15-15-15s-15 6.599-15 15v437c0 16.5-13.5 30-30 30s-30-13.5-30-30v-15c0-8.401-6.599-15-15-15s-15 6.599-15 15v15c0 32.999 27.001 60 60 60s60-27.001 60-60v-91c0-16.5 13.5-30 30-30h30c32.999 0 60-27.001 60-60v-165c0-8.401-6.599-15-15-15zm-210 105v-120c0-16.538-13.447-30-30-30h-120c-16.553 0-30 13.462-30 30v120c0 16.538 13.447 30 30 30h60 60c16.553 0 30-13.462 30-30zm-90 30c-49.629 0-90 40.371-90 90s40.371 90 90 90 90-40.371 90-90-40.371-90-90-90z" fill="url(#SVGID_1_)"/></g></g><g><g><path d="m256 0h-180c-24.814 0-45 20.186-45 45v362c0 24.814 20.186 45 45 45h180c24.814 0 45-20.186 45-45v-362c0-24.814-20.186-45-45-45zm-90 391c-41.353 0-75-33.647-75-75s33.647-75 75-75 75 33.647 75 75-33.647 75-75 75zm75-195c0 8.291-6.709 15-15 15h-120c-8.291 0-15-6.709-15-15v-120c0-8.291 6.709-15 15-15h120c8.291 0 15 6.709 15 15zm-75 105c-8.284 0-15 6.716-15 15s6.716 15 15 15 15-6.716 15-15-6.716-15-15-15zm255-225c0-24.9-20.1-45-45-45h-15v90h15c24.9 0 45-20.101 45-45zm15 45c-24.9 0-45 20.1-45 45 0 24.899 20.1 45 45 45h15v-90z" fill="url(#SVGID_2_)"/></g></g></g></svg>