<svg id="Capa_1" enable-background="new 0 0 512 512" height="512" viewBox="0 0 512 512" width="512" xmlns="http://www.w3.org/2000/svg" xmlns:xlink="http://www.w3.org/1999/xlink"><linearGradient id="SVGID_1_" gradientUnits="userSpaceOnUse" x1="256" x2="256" y1="512" y2="0"><stop offset="0" stop-color="#5558ff"/><stop offset="1" stop-color="#00c0ff"/></linearGradient><linearGradient id="SVGID_2_" gradientUnits="userSpaceOnUse" x1="316" x2="316" y1="421" y2="0"><stop offset="0" stop-color="#addcff"/><stop offset=".5028" stop-color="#eaf6ff"/><stop offset="1" stop-color="#eaf6ff"/></linearGradient><g id="Upload_File_1_"><g><g><path d="m376 75-30-75h-270c-8.401 0-15 6.599-15 15v482c0 8.399 6.599 15 15 15h360c8.401 0 15-6.601 15-15v-392z" fill="url(#SVGID_1_)"/></g></g><g><g><path d="m446.499 94.499-90-90c-2.699-2.999-6.599-4.499-10.499-4.499v90c0 8.284 6.716 15 15 15h90c0-3.9-1.501-7.8-4.501-10.501zm-179.875 30.914c-5.82-5.835-15.391-5.872-21.248 0l-59.982 59.982c-5.859 5.859-5.859 15.352 0 21.211s15.352 5.859 21.211 0l34.395-34.395v233.789c0 8.291 6.709 15 15 15s15-6.709 15-15v-233.789l34.395 34.395c5.859 5.859 15.351 5.859 21.211 0 5.859-5.859 5.859-15.352 0-21.211z" fill="url(#SVGID_2_)"/></g></g></g></svg>