<svg id="Capa_1" enable-background="new 0 0 512 512" height="512" viewBox="0 0 512 512" width="512" xmlns="http://www.w3.org/2000/svg" xmlns:xlink="http://www.w3.org/1999/xlink"><linearGradient id="SVGID_1_" gradientUnits="userSpaceOnUse" x1="256" x2="256" y1="512" y2="45"><stop offset="0" stop-color="#c3ffe8"/><stop offset=".9973" stop-color="#f0fff4"/></linearGradient><linearGradient id="SVGID_2_" gradientUnits="userSpaceOnUse" x1="256" x2="256" y1="480" y2="0"><stop offset="0" stop-color="#00b59c"/><stop offset="1" stop-color="#9cffac"/></linearGradient><g id="Drawers_2_"><g><g><path d="m106 450c-8.291 0-15 6.709-15 15v32c0 8.291 6.709 15 15 15s15-6.709 15-15v-32c0-8.291-6.709-15-15-15zm300 0c-8.291 0-15 6.709-15 15v32c0 8.291 6.709 15 15 15s15-6.709 15-15v-32c0-8.291-6.709-15-15-15zm30-240v-135c0-16.538-13.447-30-30-30h-300c-16.553 0-30 13.462-30 30v135c0 16.538 13.447 30 30 30-16.553 0-30 13.462-30 30v135c0 16.538 13.447 30 30 30h300c16.553 0 30-13.462 30-30v-135c0-16.538-13.447-30-30-30 16.553 0 30-13.462 30-30z" fill="url(#SVGID_1_)"/></g></g><g><g><path d="m436 0h-360c-24.814 0-45 20.186-45 45v390c0 24.814 20.186 45 45 45h360c24.814 0 45-20.186 45-45v-390c0-24.814-20.186-45-45-45zm-15 405c0 8.291-6.709 15-15 15h-300c-8.291 0-15-6.709-15-15v-135c0-8.291 6.709-15 15-15h300c8.291 0 15 6.709 15 15zm0-195c0 8.291-6.709 15-15 15h-300c-8.291 0-15-6.709-15-15v-135c0-8.291 6.709-15 15-15h300c8.291 0 15 6.709 15 15zm-135-90h-60c-8.291 0-15 6.709-15 15s6.709 15 15 15h60c8.291 0 15-6.709 15-15s-6.709-15-15-15zm0 195h-60c-8.291 0-15 6.709-15 15s6.709 15 15 15h60c8.291 0 15-6.709 15-15s-6.709-15-15-15z" fill="url(#SVGID_2_)"/></g></g></g></svg>