<svg id="Capa_1" enable-background="new 0 0 512 512" height="512" viewBox="0 0 512 512" width="512" xmlns="http://www.w3.org/2000/svg" xmlns:xlink="http://www.w3.org/1999/xlink"><linearGradient id="SVGID_1_" gradientUnits="userSpaceOnUse" x1="256" x2="256" y1="346.005" y2="46.005"><stop offset="0" stop-color="#fd3a84"/><stop offset="1" stop-color="#ffa68d"/></linearGradient><linearGradient id="SVGID_2_" gradientUnits="userSpaceOnUse" x1="256" x2="256" y1="465.995" y2="166.005"><stop offset="0" stop-color="#ffc2cc"/><stop offset="1" stop-color="#fff2f4"/></linearGradient><g id="Download_3_"><g><g><path d="m449.843 197.279c.776-5.581 1.157-10.942 1.157-16.274 0-74.443-60.557-135-135-135-47.593 0-91.582 25.503-115.767 66.035-11.177-4.014-22.646-6.035-34.233-6.035-53.262 0-97.397 39.873-104.121 91.333-34.629 6.621-61.879 37.134-61.879 73.667 0 41.353 34.647 75 76 75h360c41.353 0 76-33.647 76-75 0-36.636-27.396-67.207-62.157-73.726z" fill="url(#SVGID_1_)"/></g></g><g><g><path d="m326.605 380.4c-5.859-5.859-15.352-5.859-21.211 0l-34.394 34.394v-233.789c0-8.291-6.709-15-15-15s-15 6.709-15 15v233.789l-34.395-34.394c-5.859-5.859-15.352-5.859-21.211 0s-5.859 15.352 0 21.211l59.981 59.981c5.853 5.868 15.391 5.873 21.248 0l59.981-59.981c5.861-5.86 5.861-15.352.001-21.211z" fill="url(#SVGID_2_)"/></g></g></g></svg>