<svg id="Capa_1" enable-background="new 0 0 512 512" height="512" viewBox="0 0 512 512" width="512" xmlns="http://www.w3.org/2000/svg" xmlns:xlink="http://www.w3.org/1999/xlink"><linearGradient id="SVGID_1_" gradientUnits="userSpaceOnUse" x1="256" x2="256" y1="512" y2="0"><stop offset="0" stop-color="#ffe59a"/><stop offset="1" stop-color="#ffffd5"/></linearGradient><linearGradient id="SVGID_2_" gradientUnits="userSpaceOnUse" x1="256" x2="256" y1="480" y2="90"><stop offset="0" stop-color="#fd5900"/><stop offset="1" stop-color="#ffde00"/></linearGradient><g id="Dvd_player_2_"><g><g><path d="m76 450c-8.291 0-15 6.709-15 15v32c0 8.291 6.709 15 15 15s15-6.709 15-15v-32c0-8.291-6.709-15-15-15zm360 0c-8.291 0-15 6.709-15 15v32c0 8.291 6.709 15 15 15s15-6.709 15-15v-32c0-8.291-6.709-15-15-15zm-120-135h-240c-16.553 0-30 13.462-30 30v60c0 16.538 13.447 30 30 30h240c16.553 0 30-13.462 30-30v-60c0-16.538-13.447-30-30-30zm120 60h-60c-16.553 0-30 13.462-30 30s13.447 30 30 30h60c16.553 0 30-13.462 30-30s-13.447-30-30-30zm-60 0c16.553 0 30-13.462 30-30s-13.447-30-30-30-30 13.462-30 30 13.447 30 30 30zm60 0c16.553 0 30-13.462 30-30s-13.447-30-30-30-30 13.462-30 30 13.447 30 30 30zm-240-105c74.443 0 135-60.557 135-135s-60.557-135-135-135-135 60.557-135 135 60.557 135 135 135z" fill="url(#SVGID_1_)"/></g></g><g><g><path d="m497 270h-482c-8.291 0-15 6.709-15 15v180c0 8.291 6.709 15 15 15h482c8.291 0 15-6.709 15-15v-180c0-8.291-6.709-15-15-15zm-121 60c8.284 0 15 6.714 15 15 0 8.284-6.716 15-15 15s-15-6.716-15-15c0-8.286 6.716-15 15-15zm-45 75c0 8.291-6.709 15-15 15h-240c-8.291 0-15-6.709-15-15v-60c0-8.291 6.709-15 15-15h240c8.291 0 15 6.709 15 15zm105 15h-60c-8.291 0-15-6.709-15-15s6.709-15 15-15h60c8.291 0 15 6.709 15 15s-6.709 15-15 15zm0-60c-8.284 0-15-6.716-15-15 0-8.286 6.716-15 15-15s15 6.714 15 15c0 8.284-6.716 15-15 15zm-240-180c24.814 0 45-20.186 45-45s-20.186-45-45-45-45 20.186-45 45 20.186 45 45 45z" fill="url(#SVGID_2_)"/></g></g></g></svg>