<svg id="Capa_1" enable-background="new 0 0 512 512" height="512" viewBox="0 0 512 512" width="512" xmlns="http://www.w3.org/2000/svg" xmlns:xlink="http://www.w3.org/1999/xlink"><linearGradient id="lg1"><stop offset="0" stop-color="#ffbef9"/><stop offset="1" stop-color="#fff1ff"/></linearGradient><linearGradient id="SVGID_1_" gradientUnits="userSpaceOnUse" x1="256" x2="256" xlink:href="#lg1" y1="467" y2="227"/><linearGradient id="SVGID_2_" gradientUnits="userSpaceOnUse" x1="256" x2="256" y1="512" y2="182"><stop offset="0" stop-color="#a93aff"/><stop offset="1" stop-color="#ff81ff"/></linearGradient><linearGradient id="SVGID_3_" gradientUnits="userSpaceOnUse" x1="256" x2="256" xlink:href="#lg1" y1="150" y2="0"/><g><g><g><path d="m256 227c-16.553 0-30 13.462-30 30v180c0 16.538 13.447 30 30 30s30-13.462 30-30v-180c0-16.538-13.447-30-30-30zm-75 0c-16.553 0-30 13.462-30 30v180c0 16.538 13.447 30 30 30s30-13.462 30-30v-180c0-16.538-13.447-30-30-30zm150 0c-16.553 0-30 13.462-30 30v180c0 16.538 13.447 30 30 30s30-13.462 30-30v-180c0-16.538-13.447-30-30-30z" fill="url(#SVGID_1_)"/></g></g><g><g><path d="m391 182h-270c-8.291 0-15 6.709-15 15v270c0 24.814 20.186 45 45 45h210c24.814 0 45-20.186 45-45v-270c0-8.291-6.709-15-15-15zm-195 255c0 8.291-6.709 15-15 15s-15-6.709-15-15v-180c0-8.291 6.709-15 15-15s15 6.709 15 15zm75 0c0 8.291-6.709 15-15 15s-15-6.709-15-15v-180c0-8.291 6.709-15 15-15s15 6.709 15 15zm75 0c0 8.291-6.709 15-15 15s-15-6.709-15-15v-180c0-8.291 6.709-15 15-15s15 6.709 15 15z" fill="url(#SVGID_2_)"/></g></g><path d="m391 60h-60v-15c0-24.814-20.186-45-45-45h-60c-24.814 0-45 20.186-45 45v15h-60c-24.814 0-45 20.186-45 45v30c0 8.291 6.709 15 15 15h330c8.291 0 15-6.709 15-15v-30c0-24.814-20.186-45-45-45zm-180-15c0-8.276 6.724-15 15-15h60c8.276 0 15 6.724 15 15v15h-90z" fill="url(#SVGID_3_)"/></g></svg>