<svg id="Capa_1" enable-background="new 0 0 512 512" height="512" viewBox="0 0 512 512" width="512" xmlns="http://www.w3.org/2000/svg" xmlns:xlink="http://www.w3.org/1999/xlink"><linearGradient id="SVGID_1_" gradientUnits="userSpaceOnUse" x1="301" x2="301" y1="482" y2="0"><stop offset="0" stop-color="#5558ff"/><stop offset="1" stop-color="#00c0ff"/></linearGradient><linearGradient id="SVGID_2_" gradientUnits="userSpaceOnUse" x1="211" x2="211" y1="512" y2="0"><stop offset="0" stop-color="#addcff"/><stop offset=".5028" stop-color="#eaf6ff"/><stop offset="1" stop-color="#eaf6ff"/></linearGradient><g><g><g><path d="m467 150h-45l-90-22.5 90-22.5c0-3.9-1.501-7.8-4.501-10.501l-90-90c-2.699-2.999-6.599-4.499-10.499-4.499l-30 120c0 1.256.171 2.469.462 3.635l-105.462 26.365h-77c-8.401 0-15 6.599-15 15v302c0 8.399 6.599 15 15 15h362c24.902 0 45-20.102 45-45v-242c0-24.9-20.098-45-45-45z" fill="url(#SVGID_1_)"/></g></g><g><g><path d="m407 211h-210c-8.291 0-15 6.709-15 15s6.709 15 15 15h210c8.291 0 15-6.709 15-15s-6.709-15-15-15zm-180 60h-30c-8.291 0-15 6.709-15 15s6.709 15 15 15h30c8.291 0 15-6.709 15-15s-6.709-15-15-15zm90 0h-30c-8.291 0-15 6.709-15 15s6.709 15 15 15h30c8.291 0 15-6.709 15-15s-6.709-15-15-15zm90 0h-30c-8.291 0-15 6.709-15 15s6.709 15 15 15h30c8.291 0 15-6.709 15-15s-6.709-15-15-15zm-180 60h-30c-8.291 0-15 6.709-15 15s6.709 15 15 15h30c8.291 0 15-6.709 15-15s-6.709-15-15-15zm90 0h-30c-8.291 0-15 6.709-15 15s6.709 15 15 15h30c8.291 0 15-6.709 15-15s-6.709-15-15-15zm90 0h-30c-8.291 0-15 6.709-15 15s6.709 15 15 15h30c8.291 0 15-6.709 15-15s-6.709-15-15-15zm-180 60h-30c-8.291 0-15 6.709-15 15s6.709 15 15 15h30c8.291 0 15-6.709 15-15s-6.709-15-15-15zm90 0h-30c-8.291 0-15 6.709-15 15s6.709 15 15 15h30c8.291 0 15-6.709 15-15s-6.709-15-15-15zm90 0h-30c-8.291 0-15 6.709-15 15s6.709 15 15 15h30c8.291 0 15-6.709 15-15s-6.709-15-15-15zm-332-271h-30c-24.814 0-45 20.186-45 45v302c0 24.814 20.186 45 45 45h30c24.814 0 45-20.186 45-45v-302c0-24.814-20.186-45-45-45zm257-15c-8.401 0-15-6.601-15-15v-90h-120c-8.401 0-15 6.599-15 15v135h240v-45z" fill="url(#SVGID_2_)"/></g></g></g></svg>