<svg id="Capa_1" enable-background="new 0 0 512 512" height="512" viewBox="0 0 512 512" width="512" xmlns="http://www.w3.org/2000/svg" xmlns:xlink="http://www.w3.org/1999/xlink"><linearGradient id="SVGID_1_" gradientUnits="userSpaceOnUse" x1="256" x2="256" y1="512" y2="0"><stop offset="0" stop-color="#fd3a84"/><stop offset="1" stop-color="#ffa68d"/></linearGradient><linearGradient id="SVGID_2_" gradientUnits="userSpaceOnUse" x1="256" x2="256" y1="452" y2="180"><stop offset="0" stop-color="#ffc2cc"/><stop offset="1" stop-color="#fff2f4"/></linearGradient><g><g><g><path d="m211 332-16.186-32-13.814 32h-15c-8.401 0-15 6.599-15 15v60c0 57.9 47.1 105 105 105s105-47.1 105-105v-60c0-8.401-6.599-15-15-15h-15l-14.882-32-15.118 32zm238.843-180.726c.776-5.581 1.157-10.942 1.157-16.274 0-74.443-60.557-135-135-135-47.593 0-91.582 25.503-115.767 66.035-11.176-4.014-22.646-6.035-34.233-6.035-53.262 0-97.397 39.873-104.121 91.333-34.629 6.621-61.879 37.134-61.879 73.667 0 41.353 34.647 75 76 75h118.814 121.304 119.882c41.353 0 76-33.647 76-75 0-36.636-27.396-67.207-62.157-73.726z" fill="url(#SVGID_1_)"/></g></g><g><g><path d="m256 180c-41.4 0-75 33.6-75 75v77h30v-77c0-24.9 20.099-45 45-45s45 20.1 45 45v77h30v-77c0-41.4-33.6-75-75-75zm0 212c-8.291 0-15 6.709-15 15v30c0 8.291 6.709 15 15 15s15-6.709 15-15v-30c0-8.291-6.709-15-15-15z" fill="url(#SVGID_2_)"/></g></g></g></svg>