<svg id="Capa_1" enable-background="new 0 0 512 512" height="512" viewBox="0 0 512 512" width="512" xmlns="http://www.w3.org/2000/svg" xmlns:xlink="http://www.w3.org/1999/xlink"><linearGradient id="SVGID_1_" gradientUnits="userSpaceOnUse" x1="256" x2="256" y1="512" y2="0"><stop offset="0" stop-color="#a93aff"/><stop offset="1" stop-color="#ff81ff"/></linearGradient><linearGradient id="SVGID_2_" gradientUnits="userSpaceOnUse" x1="256" x2="256" y1="461.3" y2="61"><stop offset="0" stop-color="#ffbef9"/><stop offset="1" stop-color="#fff1ff"/></linearGradient><g id="Cpu_Tower_1_"><g><g><path d="m421 172.7v-127.7c0-24.9-20.098-45-45-45h-240c-24.901 0-45 20.1-45 45v127.7l30 54.3v180l-30 54.3v5.7c0 24.898 20.099 45 45 45h240c24.902 0 45-20.102 45-45v-6.301c-1.201-.3-2.402-.601-3.6-1.199l-26.4-52.5v-180z" fill="url(#SVGID_1_)"/></g></g><g><g><path d="m172.599 213.5-81.599-40.8v288.6l81.599-40.799c5.101-2.701 8.401-7.801 8.401-13.501v-180c0-5.7-3.3-10.8-8.401-13.5zm166.802 0c-5.101 2.7-8.401 7.8-8.401 13.5v180c0 5.7 3.3 10.8 8.401 13.5l77.999 39c1.198.599 2.399.899 3.6 1.199v-287.999zm-173.401-122.5h180c8.291 0 15-6.709 15-15s-6.709-15-15-15h-180c-8.291 0-15 6.709-15 15s6.709 15 15 15zm0 60h180c8.291 0 15-6.709 15-15s-6.709-15-15-15h-180c-8.291 0-15 6.709-15 15s6.709 15 15 15zm90 181c-24.814 0-45 20.186-45 45s20.186 45 45 45 45-20.186 45-45-20.186-45-45-45zm-15-45c0 8.284 6.716 15 15 15s15-6.716 15-15-6.716-15-15-15-15 6.716-15 15z" fill="url(#SVGID_2_)"/></g></g></g></svg>