<svg id="Capa_1" enable-background="new 0 0 512 512" height="512" viewBox="0 0 512 512" width="512" xmlns="http://www.w3.org/2000/svg" xmlns:xlink="http://www.w3.org/1999/xlink"><linearGradient id="SVGID_1_" gradientUnits="userSpaceOnUse" x1="256" x2="256" y1="481" y2="31"><stop offset="0" stop-color="#5558ff"/><stop offset="1" stop-color="#00c0ff"/></linearGradient><linearGradient id="SVGID_2_" gradientUnits="userSpaceOnUse" x1="256" x2="256" y1="421" y2="91"><stop offset="0" stop-color="#addcff"/><stop offset=".5028" stop-color="#eaf6ff"/><stop offset="1" stop-color="#eaf6ff"/></linearGradient><g id="Connector_2_"><g><g><path d="m467 31h-422c-24.814 0-45 20.186-45 45v360c0 24.814 20.186 45 45 45h422c24.814 0 45-20.186 45-45v-360c0-24.814-20.186-45-45-45z" fill="url(#SVGID_1_)"/></g></g><g><g><path d="m436 91h-360c-8.291 0-15 6.709-15 15v180c0 8.291 6.709 15 15 15h45v45c0 8.291 6.709 15 15 15h45v45c0 8.291 6.709 15 15 15h120c8.291 0 15-6.709 15-15v-45h45c8.291 0 15-6.709 15-15v-45h45c8.291 0 15-6.709 15-15v-180c0-8.291-6.709-15-15-15zm-285 135c0 8.291-6.709 15-15 15s-15-6.709-15-15v-60c0-8.291 6.709-15 15-15s15 6.709 15 15zm60 0c0 8.291-6.709 15-15 15s-15-6.709-15-15v-60c0-8.291 6.709-15 15-15s15 6.709 15 15zm60 0c0 8.291-6.709 15-15 15s-15-6.709-15-15v-60c0-8.291 6.709-15 15-15s15 6.709 15 15zm60 0c0 8.291-6.709 15-15 15s-15-6.709-15-15v-60c0-8.291 6.709-15 15-15s15 6.709 15 15zm60 0c0 8.291-6.709 15-15 15s-15-6.709-15-15v-60c0-8.291 6.709-15 15-15s15 6.709 15 15z" fill="url(#SVGID_2_)"/></g></g></g></svg>