<svg id="Capa_1" enable-background="new 0 0 512.007 512.007" height="512" viewBox="0 0 512.007 512.007" width="512" xmlns="http://www.w3.org/2000/svg" xmlns:xlink="http://www.w3.org/1999/xlink"><linearGradient id="SVGID_1_" gradientUnits="userSpaceOnUse" x1="256.004" x2="256.004" y1="512.007" y2=".007"><stop offset="0" stop-color="#00b59c"/><stop offset="1" stop-color="#9cffac"/></linearGradient><linearGradient id="SVGID_2_" gradientUnits="userSpaceOnUse" x1="256.004" x2="256.004" y1="482.007" y2="0"><stop offset="0" stop-color="#c3ffe8"/><stop offset=".9973" stop-color="#f0fff4"/></linearGradient><g><g id="Home_network_2_"><g><g><path d="m415.906 147.307-26.466-22.662c.989-1.974 1.563-4.237 1.563-6.732v-102.906c0-8.291-6.709-15-15-15h-60c-8.291 0-15 6.709-15 15v33.911l-35.398-30.311c-5.402-4.801-13.802-4.801-19.504 0l-150 128.7c-3.296 3.001-5.098 6.901-5.098 11.4v216.301c0 8.399 6.599 15 15 15h135l7.803 16.647-7.803 18.052c-12.898 4.5-22.8 14.401-27.297 27.301l-32.703 15 32.703 15c5.999 17.398 22.797 30 42.297 30s36.299-12.602 42.297-30l32.703-15-32.703-15c-4.497-12.9-14.399-22.8-27.297-27.301l-7.803-18.052 7.803-16.647h135c8.401 0 15-6.601 15-15v-216.301c.001-4.499-1.801-8.399-5.097-11.4z" fill="url(#SVGID_1_)"/></g></g></g><g><g><path d="m241.004 424.707c4.797-1.8 9.602-2.699 15-2.699s10.203.899 15 2.699v-34.699h-30zm-226 27.3c-8.401 0-15 6.599-15 15 0 8.399 6.599 15 15 15h198.703c-1.802-4.801-2.703-9.6-2.703-15s.901-10.201 2.703-15zm482 0h-198.703c1.802 4.799 2.703 9.6 2.703 15s-.901 10.199-2.703 15h198.703c8.401 0 15-6.601 15-15 0-8.401-6.599-15-15-15zm-286-287c-8.291 0-15 6.709-15 15v90c0 8.291 6.709 15 15 15h90c8.291 0 15-6.709 15-15v-90c0-8.291-6.709-15-15-15zm-155.244 41.382 200.244-171.621 200.244 171.621c6.141 5.31 15.637 4.782 21.152-1.626 5.391-6.284 4.658-15.747-1.641-21.138l-210-180c-5.625-4.834-13.887-4.834-19.512 0l-210 180c-6.299 5.391-7.031 14.854-1.641 21.138 5.45 6.328 14.913 7.031 21.154 1.626z" fill="url(#SVGID_2_)"/></g></g></g></svg>