<svg id="Capa_1" enable-background="new 0 0 512 512" height="512" viewBox="0 0 512 512" width="512" xmlns="http://www.w3.org/2000/svg" xmlns:xlink="http://www.w3.org/1999/xlink"><linearGradient id="SVGID_1_" gradientUnits="userSpaceOnUse" x1="331.5" x2="331.5" y1="451" y2="61"><stop offset="0" stop-color="#fd3a84"/><stop offset="1" stop-color="#ffa68d"/></linearGradient><linearGradient id="SVGID_2_" gradientUnits="userSpaceOnUse" x1="226" x2="226" y1="451" y2="121"><stop offset="0" stop-color="#ffc2cc"/><stop offset="1" stop-color="#fff2f4"/></linearGradient><g><g><g><path d="m497 61h-180c-8.401 0-15 6.599-15 15v105l-31 105 31 105v45c0 8.399 6.599 15 15 15h180c8.401 0 15-6.601 15-15v-360c0-8.401-6.599-15-15-15zm-331 300c-8.291 0-15 6.709-15 15v60c0 8.291 6.709 15 15 15s15-6.709 15-15v-60c0-8.291-6.709-15-15-15z" fill="url(#SVGID_1_)"/></g></g><g><g><path d="m0 196v180c0 8.399 6.599 15 15 15h287v-210h-287c-8.401 0-15 6.599-15 15zm226 225h-120c-8.291 0-15 6.709-15 15s6.709 15 15 15h120c8.291 0 15-6.709 15-15s-6.709-15-15-15zm211-240h-60c-8.291 0-15 6.709-15 15s6.709 15 15 15h60c8.291 0 15-6.709 15-15s-6.709-15-15-15zm-60-30h60c8.291 0 15-6.709 15-15s-6.709-15-15-15h-60c-8.291 0-15 6.709-15 15s6.709 15 15 15zm60 90h-60c-8.291 0-15 6.709-15 15s6.709 15 15 15h60c8.291 0 15-6.709 15-15s-6.709-15-15-15zm0 120c-8.284 0-15 6.716-15 15s6.716 15 15 15 15-6.716 15-15-6.716-15-15-15z" fill="url(#SVGID_2_)"/></g></g></g></svg>