<svg id="Capa_1" enable-background="new 0 0 512 512" height="512" viewBox="0 0 512 512" width="512" xmlns="http://www.w3.org/2000/svg" xmlns:xlink="http://www.w3.org/1999/xlink"><linearGradient id="SVGID_1_" gradientUnits="userSpaceOnUse" x1="256" x2="256" y1="421" y2="91"><stop offset="0" stop-color="#fd5900"/><stop offset="1" stop-color="#ffde00"/></linearGradient><linearGradient id="SVGID_2_" gradientUnits="userSpaceOnUse" x1="256" x2="256" y1="421" y2="152.5"><stop offset="0" stop-color="#ffe59a"/><stop offset="1" stop-color="#ffffd5"/></linearGradient><g><g><g><path d="m467 91h-422c-24.901 0-45 20.1-45 45v240c0 24.898 20.099 45 45 45h36.7l54.3-30h240l54.3 30h36.7c24.901 0 45-20.102 45-45v-240c0-24.9-20.099-45-45-45z" fill="url(#SVGID_1_)"/></g></g><g><g><path d="m106 241h-43.5c6 29.399 29.101 52.5 58.5 58.5v-43.5c0-8.401 6.599-15 15-15s15 6.599 15 15v43.5c29.399-6 52.5-29.101 58.5-58.5h-43.5c-8.401 0-15-6.601-15-15 0-8.401 6.599-15 15-15h43.5c-6-29.401-29.101-52.5-58.5-58.5v43.5c0 8.399-6.599 15-15 15s-15-6.601-15-15v-43.5c-29.399 6-52.5 29.099-58.5 58.5h43.5c8.401 0 15 6.599 15 15 0 8.399-6.599 15-15 15zm285-15c0-8.401 6.599-15 15-15h43.5c-6-29.401-29.101-52.5-58.5-58.5v43.5c0 8.399-6.599 15-15 15s-15-6.601-15-15v-43.5c-29.399 6-52.5 29.099-58.5 58.5h43.5c8.401 0 15 6.599 15 15 0 8.399-6.599 15-15 15h-43.5c6 29.399 29.101 52.5 58.5 58.5v-43.5c0-8.401 6.599-15 15-15s15 6.599 15 15v43.5c29.399-6 52.5-29.101 58.5-58.5h-43.5c-8.401 0-15-6.601-15-15zm-15 105h-240c-5.7 0-10.8 3.3-13.5 8.399l-40.8 81.601h348.6l-40.8-81.601c-2.7-5.099-7.8-8.399-13.5-8.399z" fill="url(#SVGID_2_)"/></g></g></g></svg>