<svg id="Capa_1" enable-background="new 0 0 512 512" height="512" viewBox="0 0 512 512" width="512" xmlns="http://www.w3.org/2000/svg" xmlns:xlink="http://www.w3.org/1999/xlink"><linearGradient id="SVGID_1_" gradientUnits="userSpaceOnUse" x1="256" x2="256" y1="512" y2="0"><stop offset="0" stop-color="#a93aff"/><stop offset="1" stop-color="#ff81ff"/></linearGradient><linearGradient id="SVGID_2_" gradientUnits="userSpaceOnUse" x1="256" x2="256" y1="451" y2="61"><stop offset="0" stop-color="#ffbef9"/><stop offset="1" stop-color="#fff1ff"/></linearGradient><g id="Binder_1_"><g><g><path d="m196 0h-120c-24.814 0-45 20.186-45 45v422c0 24.814 20.186 45 45 45h120c24.814 0 45-20.186 45-45v-422c0-24.814-20.186-45-45-45zm240 0h-120c-24.814 0-45 20.186-45 45v422c0 24.814 20.186 45 45 45h120c24.814 0 45-20.186 45-45v-422c0-24.814-20.186-45-45-45z" fill="url(#SVGID_1_)"/></g></g><g><g><path d="m136 361c-24.814 0-45 20.186-45 45s20.186 45 45 45 45-20.186 45-45-20.185-45-45-45zm30-240h-60c-8.291 0-15 6.709-15 15v150c0 8.291 6.709 15 15 15h60c8.291 0 15-6.709 15-15v-150c0-8.291-6.709-15-15-15zm0-60h-60c-8.291 0-15 6.709-15 15s6.709 15 15 15h60c8.291 0 15-6.709 15-15s-6.709-15-15-15zm210 300c-24.814 0-45 20.186-45 45s20.186 45 45 45 45-20.186 45-45-20.185-45-45-45zm30-240h-60c-8.291 0-15 6.709-15 15v150c0 8.291 6.709 15 15 15h60c8.291 0 15-6.709 15-15v-150c0-8.291-6.709-15-15-15zm-60-30h60c8.291 0 15-6.709 15-15s-6.709-15-15-15h-60c-8.291 0-15 6.709-15 15s6.709 15 15 15z" fill="url(#SVGID_2_)"/></g></g></g></svg>