<svg id="Capa_1" enable-background="new 0 0 512 512" height="512" viewBox="0 0 512 512" width="512" xmlns="http://www.w3.org/2000/svg" xmlns:xlink="http://www.w3.org/1999/xlink"><linearGradient id="SVGID_1_" gradientUnits="userSpaceOnUse" x1="278.5" x2="278.5" y1="421" y2="91"><stop offset="0" stop-color="#c3ffe8"/><stop offset=".9973" stop-color="#f0fff4"/></linearGradient><linearGradient id="SVGID_2_" gradientUnits="userSpaceOnUse" x1="196" x2="196" y1="451" y2="61"><stop offset="0" stop-color="#00b59c"/><stop offset="1" stop-color="#9cffac"/></linearGradient><g id="Compact_Disc_2_"><g><g><path d="m347 91c-11.924 0-23.101 1.128-33.223 3.354-6.87 1.509-11.777 7.603-11.777 14.648v43.066c-50.815 7.295-90 51.123-90 103.931s39.185 96.636 90 103.931v43.066c0 7.046 4.907 13.154 11.807 14.648 10.166 2.228 21.342 3.356 33.193 3.356 90.981 0 165-74.019 165-165s-74.019-165-165-165zm-272 105c-16.553 0-30 13.462-30 30v60c0 16.538 13.447 30 30 30s30-13.462 30-30v-60c0-16.538-13.447-30-30-30z" fill="url(#SVGID_1_)"/></g></g><g><g><path d="m317 331c-41.353 0-75-33.647-75-75s33.647-75 75-75c8.291 0 15-6.709 15-15v-90c0-8.291-6.709-15-15-15h-272c-24.814 0-45 20.186-45 45v300c0 24.814 20.186 45 45 45h272c8.291 0 15-6.709 15-15v-90c0-8.291-6.709-15-15-15zm-227-45c0 8.291-6.709 15-15 15s-15-6.709-15-15v-60c0-8.291 6.709-15 15-15s15 6.709 15 15zm257-75c-24.814 0-45 20.186-45 45s20.186 45 45 45 45-20.186 45-45-20.186-45-45-45z" fill="url(#SVGID_2_)"/></g></g></g></svg>