<svg id="Capa_1" enable-background="new 0 0 512 512" height="512" viewBox="0 0 512 512" width="512" xmlns="http://www.w3.org/2000/svg" xmlns:xlink="http://www.w3.org/1999/xlink"><linearGradient id="SVGID_1_" gradientUnits="userSpaceOnUse" x1="256" x2="256" y1="451" y2="301"><stop offset="0" stop-color="#ffc2cc"/><stop offset="1" stop-color="#fff2f4"/></linearGradient><linearGradient id="SVGID_2_" gradientUnits="userSpaceOnUse" x1="256" x2="256" y1="481" y2="31"><stop offset="0" stop-color="#fd3a84"/><stop offset="1" stop-color="#ffa68d"/></linearGradient><g><g><g><path d="m226 421h-151c-8.291 0-15 6.709-15 15s6.709 15 15 15h151c8.291 0 15-6.709 15-15s-6.709-15-15-15zm211 0h-151c-8.291 0-15 6.709-15 15s6.709 15 15 15h151c8.291 0 15-6.709 15-15s-6.709-15-15-15zm-166-105c0-8.291-6.709-15-15-15s-15 6.709-15 15v90c0 8.291 6.709 15 15 15s15-6.709 15-15z" fill="url(#SVGID_1_)"/></g></g><g><g><path d="m76 331h360c41.353 0 76-33.647 76-75 0-36.636-27.396-67.207-62.157-73.726.776-5.581 1.157-10.942 1.157-16.274 0-74.443-60.557-135-135-135-47.593 0-91.582 25.503-115.767 66.035-11.176-4.014-22.646-6.035-34.233-6.035-53.262 0-97.397 39.873-104.121 91.333-34.629 6.621-61.879 37.134-61.879 73.667 0 41.353 34.647 75 76 75zm210 60h-60c-8.291 0-15 6.709-15 15v60c0 8.291 6.709 15 15 15h60c8.291 0 15-6.709 15-15v-60c0-8.291-6.709-15-15-15zm-211 0h-60c-8.291 0-15 6.709-15 15v60c0 8.291 6.709 15 15 15h60c8.291 0 15-6.709 15-15v-60c0-8.291-6.709-15-15-15zm422 0h-60c-8.291 0-15 6.709-15 15v60c0 8.291 6.709 15 15 15h60c8.291 0 15-6.709 15-15v-60c0-8.291-6.709-15-15-15z" fill="url(#SVGID_2_)"/></g></g></g></svg>