<svg id="Capa_1" enable-background="new 0 0 512 512" height="512" viewBox="0 0 512 512" width="512" xmlns="http://www.w3.org/2000/svg" xmlns:xlink="http://www.w3.org/1999/xlink"><linearGradient id="SVGID_1_" gradientUnits="userSpaceOnUse" x1="256" x2="256" y1="451" y2="61"><stop offset="0" stop-color="#ffe59a"/><stop offset="1" stop-color="#ffffd5"/></linearGradient><linearGradient id="SVGID_2_" gradientUnits="userSpaceOnUse" x1="256" x2="256" y1="361" y2="121"><stop offset="0" stop-color="#fd5900"/><stop offset="1" stop-color="#ffde00"/></linearGradient><g><g><g><path d="m475.408 255.575c-4.131-2.798-9.404-3.369-13.975-1.509l-118.319 46.934h-174.228l-118.32-46.934c-4.57-1.816-9.814-1.274-13.975 1.509-4.115 2.798-6.591 7.442-6.591 12.422v138.003c0 24.814 20.186 45 45 45h362c24.814 0 45-20.186 45-45v-138.003c0-4.98-2.476-9.624-6.592-12.422zm-294.408-104.575c8.291 0 15-6.709 15-15v-30c0-8.276 6.724-15 15-15h90c8.276 0 15 6.724 15 15v30c0 8.291 6.709 15 15 15s15-6.709 15-15v-30c0-24.814-20.186-45-45-45h-90c-24.814 0-45 20.186-45 45v30c0 8.291 6.709 15 15 15z" fill="url(#SVGID_1_)"/></g></g><g><g><path d="m467 121h-422c-24.814 0-45 20.186-45 45v69.595c0 18.34 11.411 35.156 28.271 41.807l122.729 48.751v19.847c0 8.291 6.709 15 15 15s15-6.709 15-15v-15h150v15c0 8.291 6.709 15 15 15s15-6.709 15-15v-19.847l122.611-48.693c16.978-6.709 28.389-23.525 28.389-41.865v-69.595c0-24.814-20.186-45-45-45z" fill="url(#SVGID_2_)"/></g></g></g></svg>