<svg id="Capa_1" enable-background="new 0 0 512 512" height="512" viewBox="0 0 512 512" width="512" xmlns="http://www.w3.org/2000/svg" xmlns:xlink="http://www.w3.org/1999/xlink"><linearGradient id="SVGID_1_" gradientUnits="userSpaceOnUse" x1="256" x2="256" y1="466" y2="91"><stop offset="0" stop-color="#a93aff"/><stop offset="1" stop-color="#ff81ff"/></linearGradient><linearGradient id="SVGID_2_" gradientUnits="userSpaceOnUse" x1="271" x2="271" y1="512" y2="0"><stop offset="0" stop-color="#ffbef9"/><stop offset="1" stop-color="#fff1ff"/></linearGradient><g><g><g><path d="m467 121h-46l-160.421-30-169.579 30h-46c-24.901 0-45 20.1-45 45v120c0 24.898 20.099 45 45 45h61c8.401 0 15-6.601 15-15v-45h270v45c0 8.399 6.599 15 15 15h61c24.902 0 45-20.102 45-45v-120c0-24.9-20.098-45-45-45zm-91 195c0-16.538-13.447-30-30-30h-60c-16.553 0-30 13.462-30 30s13.447 30 30 30c-16.553 0-30 13.462-30 30s13.447 30 30 30h-60c16.553 0 30-13.462 30-30v-60c0-16.538-13.447-30-30-30h-60c-16.553 0-30 13.462-30 30v60c0 16.538 13.447 30 30 30-16.553 0-30 13.462-30 30s13.447 30 30 30h180c16.553 0 30-13.462 30-30s-13.447-30-30-30c16.553 0 30-13.462 30-30s-13.447-30-30-30c16.553 0 30-13.462 30-30z" fill="url(#SVGID_1_)"/></g></g><g><g><path d="m436 181h-30c-8.291 0-15 6.709-15 15s6.709 15 15 15h30c8.291 0 15-6.709 15-15s-6.709-15-15-15zm-30 60h-300c-8.291 0-15 6.709-15 15v241c0 8.291 6.709 15 15 15h300c8.291 0 15-6.709 15-15v-241c0-8.291-6.709-15-15-15zm-255 75c0-8.291 6.709-15 15-15h60c8.291 0 15 6.709 15 15v60c0 8.291-6.709 15-15 15h-60c-8.291 0-15-6.709-15-15zm195 135h-180c-8.291 0-15-6.709-15-15s6.709-15 15-15h180c8.291 0 15 6.709 15 15s-6.709 15-15 15zm0-60h-60c-8.291 0-15-6.709-15-15s6.709-15 15-15h60c8.291 0 15 6.709 15 15s-6.709 15-15 15zm0-60h-60c-8.291 0-15-6.709-15-15s6.709-15 15-15h60c8.291 0 15 6.709 15 15s-6.709 15-15 15zm75-316c0-8.401-6.599-15-15-15h-300c-8.401 0-15 6.599-15 15v106h330z" fill="url(#SVGID_2_)"/></g></g></g></svg>