<svg id="Capa_1" enable-background="new 0 0 512 512" height="512" viewBox="0 0 512 512" width="512" xmlns="http://www.w3.org/2000/svg" xmlns:xlink="http://www.w3.org/1999/xlink"><linearGradient id="SVGID_1_" gradientUnits="userSpaceOnUse" x1="256" x2="256" y1="512" y2="0"><stop offset="0" stop-color="#5558ff"/><stop offset="1" stop-color="#00c0ff"/></linearGradient><linearGradient id="SVGID_2_" gradientUnits="userSpaceOnUse" x1="256" x2="256" y1="452" y2="62"><stop offset="0" stop-color="#addcff"/><stop offset=".5028" stop-color="#eaf6ff"/><stop offset="1" stop-color="#eaf6ff"/></linearGradient><g id="Sd_card_2_"><g><g><path d="m421 0h-300c-8.291 0-15 6.709-15 15v139.563c-17.461 6.197-30 22.881-30 42.437v30c0 8.291 6.709 15 15 15h15v30h-15c-8.291 0-15 6.709-15 15v210c0 8.291 6.709 15 15 15h330c8.291 0 15-6.709 15-15v-482c0-8.291-6.709-15-15-15z" fill="url(#SVGID_1_)"/></g></g><g><g><path d="m181 182c8.291 0 15-6.709 15-15v-90c0-8.291-6.709-15-15-15s-15 6.709-15 15v90c0 8.291 6.709 15 15 15zm60 0c8.291 0 15-6.709 15-15v-90c0-8.291-6.709-15-15-15s-15 6.709-15 15v90c0 8.291 6.709 15 15 15zm60 0c8.291 0 15-6.709 15-15v-90c0-8.291-6.709-15-15-15s-15 6.709-15 15v90c0 8.291 6.709 15 15 15zm60-120c-8.291 0-15 6.709-15 15v90c0 8.291 6.709 15 15 15s15-6.709 15-15v-90c0-8.291-6.709-15-15-15zm0 300h-210c-8.291 0-15 6.709-15 15v60c0 8.291 6.709 15 15 15h210c8.291 0 15-6.709 15-15v-60c0-8.291-6.709-15-15-15z" fill="url(#SVGID_2_)"/></g></g></g></svg>