<svg id="Capa_1" enable-background="new 0 0 512 512" height="512" viewBox="0 0 512 512" width="512" xmlns="http://www.w3.org/2000/svg" xmlns:xlink="http://www.w3.org/1999/xlink"><linearGradient id="SVGID_1_" gradientUnits="userSpaceOnUse" x1="256" x2="256" y1="512" y2="0"><stop offset="0" stop-color="#00b59c"/><stop offset="1" stop-color="#9cffac"/></linearGradient><linearGradient id="SVGID_2_" gradientUnits="userSpaceOnUse" x1="256" x2="256" y1="481" y2="31"><stop offset="0" stop-color="#c3ffe8"/><stop offset=".9973" stop-color="#f0fff4"/></linearGradient><g id="Data_Transfer_2_"><g><g><path d="m225 182h-210c-8.291 0-15 6.709-15 15v300c0 8.291 6.709 15 15 15h210c8.291 0 15-6.709 15-15v-300c0-8.291-6.709-15-15-15zm272-182h-210c-8.291 0-15 6.709-15 15v300c0 8.291 6.709 15 15 15h210c8.291 0 15-6.709 15-15v-300c0-8.291-6.709-15-15-15z" fill="url(#SVGID_1_)"/></g></g><g><g><path d="m416.624 365.413c-5.82-5.835-15.391-5.873-21.248 0l-29.982 29.981c-5.859 5.859-5.859 15.352 0 21.211s15.352 5.859 21.211 0l4.395-4.395v23.79c0 8.276-6.724 15-15 15h-90c-8.291 0-15 6.709-15 15s6.709 15 15 15h90c24.814 0 45-20.186 45-45v-23.789l4.395 4.395c5.859 5.859 15.351 5.859 21.211 0 5.859-5.859 5.859-15.352 0-21.211zm-190.624-334.413h-90c-24.814 0-45 20.186-45 45v23.789l-4.395-4.395c-5.859-5.859-15.352-5.859-21.211 0s-5.859 15.352 0 21.211l29.982 29.981c5.853 5.869 15.39 5.873 21.248 0l29.982-29.981c5.859-5.859 5.859-15.352 0-21.211s-15.352-5.859-21.211 0l-4.395 4.395v-23.789c0-8.276 6.724-15 15-15h90c8.291 0 15-6.709 15-15s-6.709-15-15-15zm-61 241h-90c-8.291 0-15 6.709-15 15s6.709 15 15 15h90c8.291 0 15-6.709 15-15s-6.709-15-15-15zm0 60h-90c-8.291 0-15 6.709-15 15s6.709 15 15 15h90c8.291 0 15-6.709 15-15s-6.709-15-15-15zm0 60h-90c-8.291 0-15 6.709-15 15s6.709 15 15 15h90c8.291 0 15-6.709 15-15s-6.709-15-15-15zm182-272h90c8.291 0 15-6.709 15-15s-6.709-15-15-15h-90c-8.291 0-15 6.709-15 15s6.709 15 15 15zm90 30h-90c-8.291 0-15 6.709-15 15s6.709 15 15 15h90c8.291 0 15-6.709 15-15s-6.709-15-15-15zm0 60h-90c-8.291 0-15 6.709-15 15s6.709 15 15 15h90c8.291 0 15-6.709 15-15s-6.709-15-15-15z" fill="url(#SVGID_2_)"/></g></g></g></svg>